<mxfile host="app.diagrams.net" modified="2024-03-27T02:40:38.760Z" agent="Mozilla/5.0 (Windows NT 10.0; Win64; x64) AppleWebKit/537.36 (KHTML, like Gecko) Chrome/123.0.0.0 Safari/537.36" etag="fx5x4wPCEMi6unQ7u6Qc" version="24.2.0" type="device">
  <diagram name="05 [예제] 구체화(Width Code)" id="Okhfxqb5AKQBt1zYMtm1">
    <mxGraphModel dx="6168" dy="1492" grid="1" gridSize="10" guides="1" tooltips="1" connect="1" arrows="1" fold="1" page="1" pageScale="1" pageWidth="3300" pageHeight="4681" math="0" shadow="0">
      <root>
        <mxCell id="mxSxCT3K7TG5ama-A4u--0" />
        <mxCell id="mxSxCT3K7TG5ama-A4u--1" parent="mxSxCT3K7TG5ama-A4u--0" />
        <mxCell id="jOQ6RQaYyRkf9lb98vIc-19" value="" style="rounded=0;whiteSpace=wrap;html=1;fillColor=none;" vertex="1" parent="mxSxCT3K7TG5ama-A4u--1">
          <mxGeometry x="-3240" y="2170" width="450" height="2150" as="geometry" />
        </mxCell>
        <mxCell id="jOQ6RQaYyRkf9lb98vIc-23" value="" style="rounded=0;whiteSpace=wrap;html=1;" vertex="1" parent="mxSxCT3K7TG5ama-A4u--1">
          <mxGeometry x="-3230" y="3230" width="415" height="590" as="geometry" />
        </mxCell>
        <mxCell id="mxSxCT3K7TG5ama-A4u--49" value="Business Layer(비지니스 계층 )&lt;br&gt;중요! 사용자의 요구사항을 처리하는 영역" style="rounded=0;whiteSpace=wrap;html=1;" parent="mxSxCT3K7TG5ama-A4u--1" vertex="1">
          <mxGeometry x="-3240" y="1550" width="1560" height="50" as="geometry" />
        </mxCell>
        <mxCell id="v-Hk2H7jR2KbCjhzF-S7-0" value="서비스형 클래스 만들기" style="text;html=1;align=center;verticalAlign=middle;resizable=0;points=[];autosize=1;strokeColor=none;fillColor=none;" parent="mxSxCT3K7TG5ama-A4u--1" vertex="1">
          <mxGeometry x="-3240" y="1640" width="150" height="30" as="geometry" />
        </mxCell>
        <mxCell id="v-Hk2H7jR2KbCjhzF-S7-2" value="&lt;p style=&quot;margin:0px;margin-top:4px;text-align:center;&quot;&gt;&lt;b&gt;인증서비스 Class&lt;/b&gt;&lt;/p&gt;&lt;hr size=&quot;1&quot;&gt;&lt;p style=&quot;margin:0px;margin-left:4px;&quot;&gt;- id : String&lt;br&gt;- pw : String&lt;/p&gt;&lt;p style=&quot;margin:0px;margin-left:4px;&quot;&gt;&lt;span style=&quot;background-color: initial;&quot;&gt;- birth : Date&lt;/span&gt;&lt;/p&gt;&lt;p style=&quot;margin:0px;margin-left:4px;&quot;&gt;&lt;span style=&quot;background-color: initial;&quot;&gt;- addr : String&lt;br&gt;- email : String&lt;/span&gt;&lt;/p&gt;&lt;p style=&quot;margin:0px;margin-left:4px;&quot;&gt;&lt;span style=&quot;background-color: initial;&quot;&gt;- tel : String&lt;/span&gt;&lt;span style=&quot;background-color: initial;&quot;&gt;&amp;nbsp;&lt;/span&gt;&lt;/p&gt;&lt;hr size=&quot;1&quot;&gt;&lt;p style=&quot;margin:0px;margin-left:4px;&quot;&gt;+ createUser() : boolean&lt;/p&gt;&lt;p style=&quot;margin:0px;margin-left:4px;&quot;&gt;+ updateUser() : boolean&lt;/p&gt;&lt;p style=&quot;margin:0px;margin-left:4px;&quot;&gt;+ findUser() : String&lt;/p&gt;&lt;p style=&quot;margin:0px;margin-left:4px;&quot;&gt;+ deleteUser&lt;span style=&quot;background-color: initial;&quot;&gt;()&lt;/span&gt;&lt;span style=&quot;background-color: initial;&quot;&gt;&amp;nbsp;: boolean&lt;/span&gt;&lt;/p&gt;&lt;p style=&quot;margin:0px;margin-left:4px;&quot;&gt;&lt;br&gt;+ loginUser&lt;span style=&quot;background-color: initial;&quot;&gt;()&lt;/span&gt;&lt;span style=&quot;background-color: initial;&quot;&gt;&amp;nbsp;: boolean&lt;/span&gt;&lt;/p&gt;&lt;p style=&quot;margin:0px;margin-left:4px;&quot;&gt;&lt;/p&gt;&lt;div style=&quot;text-align: left;&quot;&gt;&amp;nbsp;+ loginAdministrator&lt;span style=&quot;background-color: initial;&quot;&gt;()&lt;/span&gt;&lt;span style=&quot;background-color: initial;&quot;&gt;&amp;nbsp;: boolean&lt;/span&gt;&lt;/div&gt;&lt;div style=&quot;text-align: left;&quot;&gt;&amp;nbsp;+ logout&lt;span style=&quot;background-color: initial;&quot;&gt;()&lt;/span&gt;&lt;span style=&quot;background-color: initial;&quot;&gt;&amp;nbsp;: boolean&lt;/span&gt;&lt;/div&gt;&lt;br style=&quot;border-color: var(--border-color); text-align: center;&quot;&gt;&lt;br&gt;&lt;p&gt;&lt;/p&gt;" style="verticalAlign=top;align=left;overflow=fill;fontSize=12;fontFamily=Helvetica;html=1;whiteSpace=wrap;shadow=1;" parent="mxSxCT3K7TG5ama-A4u--1" vertex="1">
          <mxGeometry x="-3160" y="1680" width="200" height="320" as="geometry" />
        </mxCell>
        <mxCell id="v-Hk2H7jR2KbCjhzF-S7-4" value="&lt;p style=&quot;margin:0px;margin-top:4px;text-align:center;&quot;&gt;&lt;b&gt;알림 서비스 Class&lt;/b&gt;&lt;/p&gt;&lt;hr size=&quot;1&quot;&gt;&lt;p style=&quot;margin:0px;margin-left:4px;&quot;&gt;+ notifyCode : int&lt;/p&gt;&lt;p style=&quot;margin:0px;margin-left:4px;&quot;&gt;&lt;span style=&quot;background-color: initial;&quot;&gt;+ tel : String&lt;/span&gt;&lt;/p&gt;&lt;p style=&quot;margin:0px;margin-left:4px;&quot;&gt;+ date : Date&lt;br&gt;&lt;br&gt;&lt;/p&gt;&lt;hr size=&quot;1&quot;&gt;&lt;p style=&quot;margin:0px;margin-left:4px;&quot;&gt;+ registerAlarm&lt;span style=&quot;background-color: initial;&quot;&gt;()&lt;/span&gt;&lt;span style=&quot;background-color: initial;&quot;&gt;&amp;nbsp;: boolean&lt;/span&gt;&lt;/p&gt;&lt;p style=&quot;margin:0px;margin-left:4px;&quot;&gt;+ deleteAlarm&lt;span style=&quot;background-color: initial;&quot;&gt;()&lt;/span&gt;&lt;span style=&quot;background-color: initial;&quot;&gt;&amp;nbsp;: boolean&lt;/span&gt;&lt;/p&gt;&lt;p style=&quot;margin:0px;margin-left:4px;&quot;&gt;&lt;br&gt;&lt;/p&gt;" style="verticalAlign=top;align=left;overflow=fill;fontSize=12;fontFamily=Helvetica;html=1;whiteSpace=wrap;shadow=1;" parent="mxSxCT3K7TG5ama-A4u--1" vertex="1">
          <mxGeometry x="-2880" y="1680" width="200" height="320" as="geometry" />
        </mxCell>
        <mxCell id="v-Hk2H7jR2KbCjhzF-S7-5" value="Service" style="text;html=1;align=center;verticalAlign=middle;resizable=0;points=[];autosize=1;strokeColor=none;fillColor=none;" parent="mxSxCT3K7TG5ama-A4u--1" vertex="1">
          <mxGeometry x="-3240" y="1680" width="60" height="30" as="geometry" />
        </mxCell>
        <mxCell id="KW0IFtiiwQ5vjCWQNFQy-0" value="&lt;p style=&quot;margin:0px;margin-top:4px;text-align:center;&quot;&gt;&lt;b&gt;주문 서비스 Class&lt;/b&gt;&lt;/p&gt;&lt;hr size=&quot;1&quot;&gt;&lt;p style=&quot;margin:0px;margin-left:4px;&quot;&gt;+ orderCode: Int&lt;/p&gt;&lt;p style=&quot;margin:0px;margin-left:4px;&quot;&gt;+ orderDate : Date&lt;/p&gt;&lt;p style=&quot;margin:0px;margin-left:4px;&quot;&gt;+ addr : String&lt;/p&gt;&lt;p style=&quot;margin:0px;margin-left:4px;&quot;&gt;+ tel : String&lt;/p&gt;&lt;p style=&quot;margin:0px;margin-left:4px;&quot;&gt;+ tatalCost : Int&lt;/p&gt;&lt;p style=&quot;margin:0px;margin-left:4px;&quot;&gt;+ orderDetail : String&lt;/p&gt;&lt;hr size=&quot;1&quot;&gt;&lt;p style=&quot;margin:0px;margin-left:4px;&quot;&gt;+ orderApply() : boolean&lt;span style=&quot;background-color: initial;&quot;&gt;&amp;nbsp;&lt;/span&gt;&lt;/p&gt;&lt;p style=&quot;margin:0px;margin-left:4px;&quot;&gt;&lt;br&gt;&lt;/p&gt;" style="verticalAlign=top;align=left;overflow=fill;fontSize=12;fontFamily=Helvetica;html=1;whiteSpace=wrap;shadow=1;" parent="mxSxCT3K7TG5ama-A4u--1" vertex="1">
          <mxGeometry x="-2600" y="1680" width="200" height="320" as="geometry" />
        </mxCell>
        <mxCell id="4iufTsSp4Iph0FAsAa8I-0" value="&lt;p style=&quot;margin:0px;margin-top:4px;text-align:center;&quot;&gt;&lt;b&gt;결제 서비스 Class&lt;/b&gt;&lt;/p&gt;&lt;hr size=&quot;1&quot;&gt;&lt;p style=&quot;margin:0px;margin-left:4px;&quot;&gt;+ paymentStatus : String&lt;/p&gt;&lt;p style=&quot;margin:0px;margin-left:4px;&quot;&gt;+ paymentMethod : String&lt;br&gt;&lt;/p&gt;&lt;p style=&quot;margin:0px;margin-left:4px;&quot;&gt;&lt;br&gt;&lt;/p&gt;&lt;hr size=&quot;1&quot;&gt;&lt;p style=&quot;margin:0px;margin-left:4px;&quot;&gt;+ payment&lt;span style=&quot;background-color: initial;&quot;&gt;()&lt;/span&gt;&lt;span style=&quot;background-color: initial;&quot;&gt;&amp;nbsp;: boolean&lt;/span&gt;&lt;/p&gt;&lt;p style=&quot;margin:0px;margin-left:4px;&quot;&gt;&lt;br&gt;&lt;/p&gt;&lt;p style=&quot;margin:0px;margin-left:4px;&quot;&gt;&lt;br&gt;&lt;/p&gt;" style="verticalAlign=top;align=left;overflow=fill;fontSize=12;fontFamily=Helvetica;html=1;whiteSpace=wrap;shadow=1;" parent="mxSxCT3K7TG5ama-A4u--1" vertex="1">
          <mxGeometry x="-2320" y="1680" width="210" height="320" as="geometry" />
        </mxCell>
        <mxCell id="8fm8BEINYyHVR1qGwP7b-7" value="&lt;p style=&quot;margin:0px;margin-top:4px;text-align:center;&quot;&gt;&lt;b&gt;프로젝트 Class&lt;/b&gt;&lt;/p&gt;&lt;br&gt;&lt;hr size=&quot;1&quot;&gt;&lt;p style=&quot;margin:0px;margin-left:4px;&quot;&gt;proCode : int&amp;nbsp;&lt;/p&gt;&lt;p style=&quot;margin:0px;margin-left:4px;&quot;&gt;proName : String&lt;/p&gt;&lt;p style=&quot;margin:0px;margin-left:4px;&quot;&gt;proImage : String&amp;nbsp;&amp;nbsp;&lt;/p&gt;&lt;p style=&quot;margin:0px;margin-left:4px;&quot;&gt;Id : String&lt;/p&gt;&lt;p style=&quot;margin:0px;margin-left:4px;&quot;&gt;achievedAmount : int&lt;/p&gt;&lt;p style=&quot;margin:0px;margin-left:4px;&quot;&gt;category :&amp;nbsp; String&lt;/p&gt;&lt;p style=&quot;margin:0px;margin-left:4px;&quot;&gt;recruited : int&lt;/p&gt;&lt;p style=&quot;margin:0px;margin-left:4px;&quot;&gt;participated : int&lt;/p&gt;&lt;p style=&quot;margin:0px;margin-left:4px;&quot;&gt;&lt;br&gt;&lt;/p&gt;" style="verticalAlign=top;align=left;overflow=fill;fontSize=12;fontFamily=Helvetica;html=1;whiteSpace=wrap;shadow=1;" parent="mxSxCT3K7TG5ama-A4u--1" vertex="1">
          <mxGeometry x="-3240" y="200" width="160" height="200" as="geometry" />
        </mxCell>
        <mxCell id="8fm8BEINYyHVR1qGwP7b-8" value="&lt;p style=&quot;margin:0px;margin-top:4px;text-align:center;&quot;&gt;&lt;b&gt;회원정보(구매자,판매자) Class&lt;/b&gt;&lt;/p&gt;&lt;hr size=&quot;1&quot;&gt;&lt;p style=&quot;margin:0px;margin-left:4px;&quot;&gt;id : String&lt;/p&gt;&lt;p style=&quot;margin:0px;margin-left:4px;&quot;&gt;pw : String&lt;/p&gt;&lt;p style=&quot;margin:0px;margin-left:4px;&quot;&gt;name : String&lt;/p&gt;&lt;p style=&quot;margin:0px;margin-left:4px;&quot;&gt;addr&amp;nbsp; : String&lt;/p&gt;&lt;p style=&quot;margin:0px;margin-left:4px;&quot;&gt;tel : int&amp;nbsp;&lt;/p&gt;&lt;p style=&quot;margin:0px;margin-left:4px;&quot;&gt;authority : int&lt;/p&gt;&lt;p style=&quot;margin:0px;margin-left:4px;&quot;&gt;&lt;br&gt;&lt;/p&gt;" style="verticalAlign=top;align=left;overflow=fill;fontSize=12;fontFamily=Helvetica;html=1;whiteSpace=wrap;shadow=1;" parent="mxSxCT3K7TG5ama-A4u--1" vertex="1">
          <mxGeometry x="-3000" y="200" width="160" height="200" as="geometry" />
        </mxCell>
        <mxCell id="8fm8BEINYyHVR1qGwP7b-9" value="&lt;p style=&quot;margin:0px;margin-top:4px;text-align:center;&quot;&gt;&lt;b&gt;커뮤니티 Class&lt;/b&gt;&lt;/p&gt;&lt;hr size=&quot;1&quot;&gt;&lt;p style=&quot;margin:0px;margin-left:4px;&quot;&gt;postCode: int&lt;/p&gt;&lt;p style=&quot;margin:0px;margin-left:4px;&quot;&gt;proCode: int&lt;/p&gt;&lt;p style=&quot;margin:0px;margin-left:4px;&quot;&gt;id : String&lt;/p&gt;&lt;p style=&quot;margin:0px;margin-left:4px;&quot;&gt;date : date&lt;/p&gt;&lt;p style=&quot;margin:0px;margin-left:4px;&quot;&gt;postTitle: String&lt;/p&gt;&lt;p style=&quot;margin:0px;margin-left:4px;&quot;&gt;postContents : String&lt;/p&gt;&lt;p style=&quot;margin:0px;margin-left:4px;&quot;&gt;starPoint : float&lt;/p&gt;&lt;p style=&quot;margin:0px;margin-left:4px;&quot;&gt;&lt;br&gt;&lt;/p&gt;" style="verticalAlign=top;align=left;overflow=fill;fontSize=12;fontFamily=Helvetica;html=1;whiteSpace=wrap;shadow=1;" parent="mxSxCT3K7TG5ama-A4u--1" vertex="1">
          <mxGeometry x="-2760" y="200" width="160" height="200" as="geometry" />
        </mxCell>
        <mxCell id="8fm8BEINYyHVR1qGwP7b-10" value="&lt;p style=&quot;margin:0px;margin-top:4px;text-align:center;&quot;&gt;&lt;b&gt;주문내역 Class&lt;/b&gt;&lt;/p&gt;&lt;hr size=&quot;1&quot;&gt;&lt;p style=&quot;margin:0px;margin-left:4px;&quot;&gt;orderCode : int&lt;/p&gt;&lt;p style=&quot;margin:0px;margin-left:4px;&quot;&gt;proCode : int&lt;/p&gt;&lt;p style=&quot;margin:0px;margin-left:4px;&quot;&gt;id : String&lt;/p&gt;&lt;p style=&quot;margin:0px;margin-left:4px;&quot;&gt;totalProductAmount : int&lt;/p&gt;&lt;p style=&quot;margin: 0px 0px 0px 4px;&quot;&gt;ProductAmount : int&lt;/p&gt;&lt;p style=&quot;margin: 0px 0px 0px 4px;&quot;&gt;orderCnt : int&lt;/p&gt;&lt;p style=&quot;margin: 0px 0px 0px 4px;&quot;&gt;orderDate : Date&lt;/p&gt;&lt;p style=&quot;margin: 0px 0px 0px 4px;&quot;&gt;orderState : String&lt;/p&gt;&lt;p style=&quot;margin: 0px 0px 0px 4px;&quot;&gt;delivery : int&lt;/p&gt;&lt;p style=&quot;margin:0px;margin-left:4px;&quot;&gt;&lt;br&gt;&lt;/p&gt;" style="verticalAlign=top;align=left;overflow=fill;fontSize=12;fontFamily=Helvetica;html=1;whiteSpace=wrap;shadow=1;" parent="mxSxCT3K7TG5ama-A4u--1" vertex="1">
          <mxGeometry x="-2520" y="200" width="160" height="200" as="geometry" />
        </mxCell>
        <mxCell id="8fm8BEINYyHVR1qGwP7b-11" value="&lt;p style=&quot;margin:0px;margin-top:4px;text-align:center;&quot;&gt;&lt;b&gt;프로젝트 CRUD Class&lt;/b&gt;&lt;/p&gt;&lt;hr size=&quot;1&quot;&gt;&lt;p style=&quot;margin:0px;margin-left:4px;&quot;&gt;&lt;span style=&quot;background-color: initial;&quot;&gt;proCode : int&amp;nbsp;&lt;/span&gt;&lt;/p&gt;&lt;p style=&quot;margin: 0px 0px 0px 4px;&quot;&gt;proName : String&lt;/p&gt;&lt;p style=&quot;margin: 0px 0px 0px 4px;&quot;&gt;proImage : String&amp;nbsp;&amp;nbsp;&lt;/p&gt;&lt;p style=&quot;margin: 0px 0px 0px 4px;&quot;&gt;Id : String&lt;/p&gt;&lt;p style=&quot;margin: 0px 0px 0px 4px;&quot;&gt;achievedAmount : int&lt;/p&gt;&lt;p style=&quot;margin: 0px 0px 0px 4px;&quot;&gt;category :&amp;nbsp; String&lt;/p&gt;&lt;p style=&quot;margin: 0px 0px 0px 4px;&quot;&gt;recruited : int&lt;/p&gt;&lt;p style=&quot;margin: 0px 0px 0px 4px;&quot;&gt;participated : int&lt;/p&gt;&lt;p style=&quot;margin: 0px 0px 0px 4px;&quot;&gt;&lt;br&gt;&lt;/p&gt;&lt;hr size=&quot;1&quot;&gt;&lt;p style=&quot;margin: 0px 0px 0px 4px;&quot;&gt;&lt;span style=&quot;background-color: initial;&quot;&gt;+select() : List&amp;lt;&lt;/span&gt;&lt;span style=&quot;text-align: center; text-wrap: nowrap;&quot;&gt;ProjectDto&lt;/span&gt;&lt;span style=&quot;background-color: initial;&quot;&gt;&amp;gt;&lt;/span&gt;&lt;br&gt;&lt;/p&gt;&lt;p style=&quot;margin: 0px 0px 0px 4px;&quot;&gt;&lt;span style=&quot;background-color: initial;&quot;&gt;&lt;br&gt;&lt;/span&gt;&lt;/p&gt;&lt;p style=&quot;margin: 0px 0px 0px 4px;&quot;&gt;&lt;span style=&quot;background-color: initial;&quot;&gt;+select(int proCode): List&amp;lt;&lt;/span&gt;&lt;span style=&quot;text-align: center; text-wrap: nowrap;&quot;&gt;ProjectDto&lt;/span&gt;&lt;span style=&quot;background-color: initial;&quot;&gt;&amp;gt;&lt;/span&gt;&lt;/p&gt;&lt;p style=&quot;margin: 0px 0px 0px 4px;&quot;&gt;&lt;br&gt;&lt;/p&gt;&lt;p style=&quot;margin: 0px 0px 0px 4px;&quot;&gt;+insert(&lt;span style=&quot;text-align: center; text-wrap: nowrap;&quot;&gt;ProjectDto&lt;/span&gt;&amp;nbsp;dto)&amp;nbsp;&lt;span style=&quot;background-color: initial;&quot;&gt;: String&lt;/span&gt;&lt;/p&gt;&lt;p style=&quot;margin: 0px 0px 0px 4px;&quot;&gt;&lt;br&gt;&lt;/p&gt;&lt;p style=&quot;margin: 0px 0px 0px 4px;&quot;&gt;+update(&lt;span style=&quot;text-align: center; text-wrap: nowrap;&quot;&gt;ProjectDto&lt;/span&gt;&amp;nbsp;dto)&amp;nbsp;&lt;span style=&quot;background-color: initial;&quot;&gt;:String&lt;/span&gt;&lt;/p&gt;&lt;p style=&quot;margin: 0px 0px 0px 4px;&quot;&gt;&lt;br&gt;&lt;/p&gt;&lt;p style=&quot;margin: 0px 0px 0px 4px;&quot;&gt;+delete(int proCode)&amp;nbsp;&lt;span style=&quot;background-color: initial;&quot;&gt;:String&lt;/span&gt;&lt;/p&gt;" style="verticalAlign=top;align=left;overflow=fill;fontSize=12;fontFamily=Helvetica;html=1;whiteSpace=wrap;shadow=1;" parent="mxSxCT3K7TG5ama-A4u--1" vertex="1">
          <mxGeometry x="-3240" y="520" width="240" height="400" as="geometry" />
        </mxCell>
        <mxCell id="8fm8BEINYyHVR1qGwP7b-12" value="&lt;p style=&quot;margin:0px;margin-top:4px;text-align:center;&quot;&gt;&lt;b&gt;회원 테이블 CRUD Class&lt;/b&gt;&lt;/p&gt;&lt;hr size=&quot;1&quot;&gt;&lt;p style=&quot;margin:0px;margin-left:4px;&quot;&gt;&lt;span style=&quot;background-color: initial;&quot;&gt;id : String&lt;/span&gt;&lt;/p&gt;&lt;p style=&quot;margin: 0px 0px 0px 4px;&quot;&gt;pw : String&lt;/p&gt;&lt;p style=&quot;margin: 0px 0px 0px 4px;&quot;&gt;name : String&lt;/p&gt;&lt;p style=&quot;margin: 0px 0px 0px 4px;&quot;&gt;addr&amp;nbsp; : String&lt;/p&gt;&lt;p style=&quot;margin: 0px 0px 0px 4px;&quot;&gt;tel : int&amp;nbsp;&lt;/p&gt;&lt;p style=&quot;margin: 0px 0px 0px 4px;&quot;&gt;authority : int&lt;/p&gt;&lt;hr size=&quot;1&quot;&gt;&lt;p style=&quot;margin: 0px 0px 0px 4px;&quot;&gt;&lt;span style=&quot;background-color: initial;&quot;&gt;+select() :&amp;nbsp;&lt;/span&gt;&lt;span style=&quot;background-color: initial;&quot;&gt;List&amp;lt;&lt;/span&gt;&lt;span style=&quot;text-align: center; text-wrap: nowrap;&quot;&gt;MemberDto&lt;/span&gt;&lt;span style=&quot;background-color: initial;&quot;&gt;&amp;gt;&lt;/span&gt;&lt;br&gt;&lt;/p&gt;&lt;p style=&quot;margin: 0px 0px 0px 4px;&quot;&gt;&lt;br&gt;&lt;/p&gt;&lt;p style=&quot;margin: 0px 0px 0px 4px;&quot;&gt;&lt;span style=&quot;background-color: initial;&quot;&gt;&lt;br&gt;&lt;/span&gt;&lt;/p&gt;&lt;p style=&quot;margin: 0px 0px 0px 4px;&quot;&gt;&lt;span style=&quot;background-color: initial;&quot;&gt;+insert(&lt;/span&gt;MemberDto&lt;span style=&quot;background-color: initial;&quot;&gt;):&lt;/span&gt;&lt;/p&gt;&lt;p style=&quot;margin: 0px 0px 0px 4px;&quot;&gt;String&lt;/p&gt;&lt;p style=&quot;margin: 0px 0px 0px 4px;&quot;&gt;&lt;br&gt;&lt;/p&gt;&lt;p style=&quot;margin: 0px 0px 0px 4px;&quot;&gt;+update(MemberDto)&lt;/p&gt;&lt;p style=&quot;margin: 0px 0px 0px 4px;&quot;&gt;:String&lt;/p&gt;&lt;p style=&quot;margin: 0px 0px 0px 4px;&quot;&gt;&lt;br&gt;&lt;/p&gt;&lt;p style=&quot;margin: 0px 0px 0px 4px;&quot;&gt;+delete(String id):&lt;/p&gt;&lt;p style=&quot;margin: 0px 0px 0px 4px;&quot;&gt;String&lt;/p&gt;" style="verticalAlign=top;align=left;overflow=fill;fontSize=12;fontFamily=Helvetica;html=1;whiteSpace=wrap;shadow=1;" parent="mxSxCT3K7TG5ama-A4u--1" vertex="1">
          <mxGeometry x="-2840" y="520" width="240" height="400" as="geometry" />
        </mxCell>
        <mxCell id="8fm8BEINYyHVR1qGwP7b-13" value="&lt;p style=&quot;margin:0px;margin-top:4px;text-align:center;&quot;&gt;&lt;b&gt;주문 CRUD Class&lt;/b&gt;&lt;/p&gt;&lt;hr size=&quot;1&quot;&gt;&lt;p style=&quot;margin:0px;margin-left:4px;&quot;&gt;&lt;span style=&quot;background-color: initial;&quot;&gt;orderCode : int&lt;/span&gt;&lt;/p&gt;&lt;p style=&quot;margin: 0px 0px 0px 4px;&quot;&gt;proCode : int&lt;/p&gt;&lt;p style=&quot;margin: 0px 0px 0px 4px;&quot;&gt;id : String&lt;/p&gt;&lt;p style=&quot;margin: 0px 0px 0px 4px;&quot;&gt;totalProductCost : int&lt;/p&gt;&lt;p style=&quot;margin: 0px 0px 0px 4px;&quot;&gt;ProductCost : int&lt;/p&gt;&lt;p style=&quot;margin: 0px 0px 0px 4px;&quot;&gt;orderCnt : int&lt;/p&gt;&lt;p style=&quot;margin: 0px 0px 0px 4px;&quot;&gt;orderDate : Date&lt;/p&gt;&lt;p style=&quot;margin: 0px 0px 0px 4px;&quot;&gt;orderState : String&lt;/p&gt;&lt;p style=&quot;margin: 0px 0px 0px 4px;&quot;&gt;delivery : int&lt;/p&gt;&lt;hr size=&quot;1&quot;&gt;&lt;p style=&quot;margin: 0px 0px 0px 4px;&quot;&gt;&lt;span style=&quot;background-color: initial;&quot;&gt;+select()&amp;nbsp;&lt;/span&gt;&lt;/p&gt;&lt;p style=&quot;margin: 0px 0px 0px 4px;&quot;&gt;&lt;span style=&quot;background-color: initial;&quot;&gt;: List&amp;lt;&lt;/span&gt;&lt;span style=&quot;text-align: center; text-wrap: nowrap;&quot;&gt;OrderDto&lt;/span&gt;&lt;span style=&quot;background-color: initial;&quot;&gt;&amp;gt;&lt;/span&gt;&lt;br&gt;&lt;/p&gt;&lt;p style=&quot;margin: 0px 0px 0px 4px;&quot;&gt;&lt;span style=&quot;background-color: initial;&quot;&gt;&lt;br&gt;&lt;/span&gt;&lt;/p&gt;&lt;p style=&quot;margin: 0px 0px 0px 4px;&quot;&gt;&lt;span style=&quot;background-color: initial;&quot;&gt;+select(int orderCode): List&amp;lt;&lt;/span&gt;&lt;span style=&quot;text-align: center; text-wrap: nowrap;&quot;&gt;OrderDto&lt;/span&gt;&lt;span style=&quot;background-color: initial;&quot;&gt;&amp;gt;&lt;/span&gt;&lt;/p&gt;&lt;p style=&quot;margin: 0px 0px 0px 4px;&quot;&gt;&lt;span style=&quot;background-color: initial;&quot;&gt;&lt;br&gt;&lt;/span&gt;&lt;/p&gt;&lt;p style=&quot;margin: 0px 0px 0px 4px;&quot;&gt;+insert(&lt;span style=&quot;text-align: center; text-wrap: nowrap;&quot;&gt;OrderDto&amp;nbsp;&lt;/span&gt;dto)&lt;/p&gt;&lt;p style=&quot;margin: 0px 0px 0px 4px;&quot;&gt;:String&lt;/p&gt;&lt;p style=&quot;margin: 0px 0px 0px 4px;&quot;&gt;&lt;br&gt;&lt;/p&gt;&lt;p style=&quot;margin: 0px 0px 0px 4px;&quot;&gt;+update(&lt;span style=&quot;text-align: center; text-wrap: nowrap;&quot;&gt;OrderDto&amp;nbsp;&lt;/span&gt;dto)&lt;/p&gt;&lt;p style=&quot;margin: 0px 0px 0px 4px;&quot;&gt;:String&lt;/p&gt;&lt;p style=&quot;margin: 0px 0px 0px 4px;&quot;&gt;&lt;br&gt;&lt;/p&gt;&lt;p style=&quot;margin: 0px 0px 0px 4px;&quot;&gt;&lt;span style=&quot;background-color: initial;&quot;&gt;+delete(int orderCode)&lt;/span&gt;&lt;/p&gt;&lt;p style=&quot;margin: 0px 0px 0px 4px;&quot;&gt;&lt;span style=&quot;background-color: initial;&quot;&gt;:String&lt;/span&gt;&lt;br&gt;&lt;/p&gt;" style="verticalAlign=top;align=left;overflow=fill;fontSize=12;fontFamily=Helvetica;html=1;whiteSpace=wrap;shadow=1;" parent="mxSxCT3K7TG5ama-A4u--1" vertex="1">
          <mxGeometry x="-3240" y="1000" width="240" height="400" as="geometry" />
        </mxCell>
        <mxCell id="8fm8BEINYyHVR1qGwP7b-14" value="&lt;p style=&quot;margin:0px;margin-top:4px;text-align:center;&quot;&gt;&lt;b&gt;알림 CRUD Class&lt;/b&gt;&lt;/p&gt;&lt;p style=&quot;margin:0px;margin-left:4px;&quot;&gt;&lt;br&gt;&lt;/p&gt;&lt;p style=&quot;margin: 0px 0px 0px 4px;&quot;&gt;notifyCode : int&lt;/p&gt;&lt;p style=&quot;margin: 0px 0px 0px 4px;&quot;&gt;notifyDate : Date&lt;/p&gt;&lt;p style=&quot;margin: 0px 0px 0px 4px;&quot;&gt;id : String&lt;/p&gt;&lt;p style=&quot;margin: 0px 0px 0px 4px;&quot;&gt;&lt;br&gt;&lt;/p&gt;&lt;hr size=&quot;1&quot;&gt;&lt;p style=&quot;margin: 0px 0px 0px 4px;&quot;&gt;&lt;span style=&quot;background-color: initial;&quot;&gt;+select()&amp;nbsp;&lt;/span&gt;&lt;/p&gt;&lt;p style=&quot;margin: 0px 0px 0px 4px;&quot;&gt;&lt;span style=&quot;background-color: initial;&quot;&gt;: List&amp;lt;&lt;/span&gt;&lt;span style=&quot;text-align: center; text-wrap: nowrap;&quot;&gt;NotifyDto&lt;/span&gt;&lt;span style=&quot;background-color: initial;&quot;&gt;&amp;gt;&lt;/span&gt;&lt;br&gt;&lt;/p&gt;&lt;p style=&quot;margin: 0px 0px 0px 4px;&quot;&gt;&lt;span style=&quot;background-color: initial;&quot;&gt;&lt;br&gt;&lt;/span&gt;&lt;/p&gt;&lt;p style=&quot;margin: 0px 0px 0px 4px;&quot;&gt;&lt;span style=&quot;background-color: initial;&quot;&gt;+select(int orderCode): List&amp;lt;&lt;/span&gt;&lt;span style=&quot;text-align: center; text-wrap: nowrap;&quot;&gt;NotifyDto&lt;/span&gt;&lt;span style=&quot;background-color: initial;&quot;&gt;&amp;gt;&lt;/span&gt;&lt;/p&gt;&lt;p style=&quot;margin: 0px 0px 0px 4px;&quot;&gt;&lt;span style=&quot;background-color: initial;&quot;&gt;&lt;br&gt;&lt;/span&gt;&lt;/p&gt;&lt;p style=&quot;margin: 0px 0px 0px 4px;&quot;&gt;+insert(&lt;span style=&quot;text-align: center; text-wrap: nowrap;&quot;&gt;NotifyDto&amp;nbsp;&lt;/span&gt;dto)&lt;/p&gt;&lt;p style=&quot;margin: 0px 0px 0px 4px;&quot;&gt;:String&lt;/p&gt;&lt;p style=&quot;margin: 0px 0px 0px 4px;&quot;&gt;&lt;br&gt;&lt;/p&gt;&lt;p style=&quot;margin: 0px 0px 0px 4px;&quot;&gt;+update(&lt;span style=&quot;text-align: center; text-wrap: nowrap;&quot;&gt;NotifyDto&amp;nbsp;&lt;/span&gt;dto)&lt;/p&gt;&lt;p style=&quot;margin: 0px 0px 0px 4px;&quot;&gt;:String&lt;/p&gt;&lt;p style=&quot;margin: 0px 0px 0px 4px;&quot;&gt;&lt;br&gt;&lt;/p&gt;&lt;p style=&quot;margin: 0px 0px 0px 4px;&quot;&gt;&lt;span style=&quot;background-color: initial;&quot;&gt;+delete(int notifyCode)&lt;/span&gt;&lt;/p&gt;&lt;p style=&quot;margin: 0px 0px 0px 4px;&quot;&gt;&lt;span style=&quot;background-color: initial;&quot;&gt;:String&lt;/span&gt;&lt;/p&gt;" style="verticalAlign=top;align=left;overflow=fill;fontSize=12;fontFamily=Helvetica;html=1;whiteSpace=wrap;shadow=1;" parent="mxSxCT3K7TG5ama-A4u--1" vertex="1">
          <mxGeometry x="-2840" y="1000" width="240" height="400" as="geometry" />
        </mxCell>
        <mxCell id="8fm8BEINYyHVR1qGwP7b-15" value="프로젝트&lt;br&gt;테이블" style="shape=cylinder3;whiteSpace=wrap;html=1;boundedLbl=1;backgroundOutline=1;size=15;" parent="mxSxCT3K7TG5ama-A4u--1" vertex="1">
          <mxGeometry x="-2942.5" y="650" width="50" height="70" as="geometry" />
        </mxCell>
        <mxCell id="8fm8BEINYyHVR1qGwP7b-16" value="회원&lt;br&gt;테이블" style="shape=cylinder3;whiteSpace=wrap;html=1;boundedLbl=1;backgroundOutline=1;size=15;" parent="mxSxCT3K7TG5ama-A4u--1" vertex="1">
          <mxGeometry x="-2542.5" y="650" width="50" height="70" as="geometry" />
        </mxCell>
        <mxCell id="8fm8BEINYyHVR1qGwP7b-17" value="주문&lt;br&gt;테이블" style="shape=cylinder3;whiteSpace=wrap;html=1;boundedLbl=1;backgroundOutline=1;size=15;" parent="mxSxCT3K7TG5ama-A4u--1" vertex="1">
          <mxGeometry x="-2942.5" y="1130" width="50" height="70" as="geometry" />
        </mxCell>
        <mxCell id="8fm8BEINYyHVR1qGwP7b-19" value="예약&lt;br&gt;테이블" style="shape=cylinder3;whiteSpace=wrap;html=1;boundedLbl=1;backgroundOutline=1;size=15;" parent="mxSxCT3K7TG5ama-A4u--1" vertex="1">
          <mxGeometry x="-2542.5" y="1130" width="50" height="70" as="geometry" />
        </mxCell>
        <mxCell id="8fm8BEINYyHVR1qGwP7b-20" value="Dto" style="text;html=1;align=center;verticalAlign=middle;resizable=0;points=[];autosize=1;strokeColor=none;fillColor=none;" parent="mxSxCT3K7TG5ama-A4u--1" vertex="1">
          <mxGeometry x="-3240" y="130" width="40" height="30" as="geometry" />
        </mxCell>
        <mxCell id="8fm8BEINYyHVR1qGwP7b-21" value="Dao" style="text;html=1;align=center;verticalAlign=middle;resizable=0;points=[];autosize=1;strokeColor=none;fillColor=none;" parent="mxSxCT3K7TG5ama-A4u--1" vertex="1">
          <mxGeometry x="-3240" y="450" width="50" height="30" as="geometry" />
        </mxCell>
        <mxCell id="8fm8BEINYyHVR1qGwP7b-22" value="ProjectDto" style="text;html=1;align=center;verticalAlign=middle;resizable=0;points=[];autosize=1;strokeColor=none;fillColor=none;" parent="mxSxCT3K7TG5ama-A4u--1" vertex="1">
          <mxGeometry x="-3200" y="170" width="80" height="30" as="geometry" />
        </mxCell>
        <mxCell id="8fm8BEINYyHVR1qGwP7b-23" value="MemberDto" style="text;html=1;align=center;verticalAlign=middle;resizable=0;points=[];autosize=1;strokeColor=none;fillColor=none;" parent="mxSxCT3K7TG5ama-A4u--1" vertex="1">
          <mxGeometry x="-2965" y="170" width="90" height="30" as="geometry" />
        </mxCell>
        <mxCell id="8fm8BEINYyHVR1qGwP7b-24" value="CommunityDto" style="text;html=1;align=center;verticalAlign=middle;resizable=0;points=[];autosize=1;strokeColor=none;fillColor=none;" parent="mxSxCT3K7TG5ama-A4u--1" vertex="1">
          <mxGeometry x="-2730" y="170" width="100" height="30" as="geometry" />
        </mxCell>
        <mxCell id="8fm8BEINYyHVR1qGwP7b-25" value="OrderDto" style="text;html=1;align=center;verticalAlign=middle;resizable=0;points=[];autosize=1;strokeColor=none;fillColor=none;" parent="mxSxCT3K7TG5ama-A4u--1" vertex="1">
          <mxGeometry x="-2480" y="170" width="70" height="30" as="geometry" />
        </mxCell>
        <mxCell id="8fm8BEINYyHVR1qGwP7b-26" value="ProjectDao" style="text;html=1;align=center;verticalAlign=middle;resizable=0;points=[];autosize=1;strokeColor=none;fillColor=none;" parent="mxSxCT3K7TG5ama-A4u--1" vertex="1">
          <mxGeometry x="-3160" y="490" width="80" height="30" as="geometry" />
        </mxCell>
        <mxCell id="8fm8BEINYyHVR1qGwP7b-27" value="MemberDao" style="text;html=1;align=center;verticalAlign=middle;resizable=0;points=[];autosize=1;strokeColor=none;fillColor=none;" parent="mxSxCT3K7TG5ama-A4u--1" vertex="1">
          <mxGeometry x="-2767.5" y="490" width="90" height="30" as="geometry" />
        </mxCell>
        <mxCell id="8fm8BEINYyHVR1qGwP7b-30" value="&lt;p style=&quot;margin:0px;margin-top:4px;text-align:center;&quot;&gt;&lt;b&gt;알림 내역 Class&lt;/b&gt;&lt;/p&gt;&lt;hr size=&quot;1&quot;&gt;&lt;p style=&quot;margin:0px;margin-left:4px;&quot;&gt;notifyCode : int&lt;/p&gt;&lt;p style=&quot;margin:0px;margin-left:4px;&quot;&gt;notifyDate : Date&lt;/p&gt;&lt;p style=&quot;margin:0px;margin-left:4px;&quot;&gt;id : String&lt;/p&gt;&lt;p style=&quot;margin:0px;margin-left:4px;&quot;&gt;&lt;br&gt;&lt;/p&gt;" style="verticalAlign=top;align=left;overflow=fill;fontSize=12;fontFamily=Helvetica;html=1;whiteSpace=wrap;shadow=1;" parent="mxSxCT3K7TG5ama-A4u--1" vertex="1">
          <mxGeometry x="-2280" y="200" width="160" height="200" as="geometry" />
        </mxCell>
        <mxCell id="8fm8BEINYyHVR1qGwP7b-32" value="NotifyDto" style="text;html=1;align=center;verticalAlign=middle;resizable=0;points=[];autosize=1;strokeColor=none;fillColor=none;" parent="mxSxCT3K7TG5ama-A4u--1" vertex="1">
          <mxGeometry x="-2235" y="170" width="70" height="30" as="geometry" />
        </mxCell>
        <mxCell id="8fm8BEINYyHVR1qGwP7b-35" value="&lt;p style=&quot;margin:0px;margin-top:4px;text-align:center;&quot;&gt;&lt;b&gt;커뮤니티 Class&lt;/b&gt;&lt;/p&gt;&lt;hr size=&quot;1&quot;&gt;&lt;p style=&quot;margin:0px;margin-left:4px;&quot;&gt;&lt;span style=&quot;background-color: initial;&quot;&gt;postCode: int&lt;/span&gt;&lt;/p&gt;&lt;p style=&quot;margin: 0px 0px 0px 4px;&quot;&gt;proCode: int&lt;/p&gt;&lt;p style=&quot;margin: 0px 0px 0px 4px;&quot;&gt;id : String&lt;/p&gt;&lt;p style=&quot;margin: 0px 0px 0px 4px;&quot;&gt;date : date&lt;/p&gt;&lt;p style=&quot;margin: 0px 0px 0px 4px;&quot;&gt;postTitle: String&lt;/p&gt;&lt;p style=&quot;margin: 0px 0px 0px 4px;&quot;&gt;postContents : String&lt;/p&gt;&lt;p style=&quot;margin: 0px 0px 0px 4px;&quot;&gt;starPoint : float&lt;/p&gt;&lt;p style=&quot;margin: 0px 0px 0px 4px;&quot;&gt;&lt;br&gt;&lt;/p&gt;&lt;hr size=&quot;1&quot;&gt;&lt;p style=&quot;margin: 0px 0px 0px 4px;&quot;&gt;&lt;span style=&quot;background-color: initial;&quot;&gt;+select()&amp;nbsp;&lt;/span&gt;&lt;/p&gt;&lt;p style=&quot;margin: 0px 0px 0px 4px;&quot;&gt;&lt;span style=&quot;background-color: initial;&quot;&gt;: List&amp;lt;&lt;/span&gt;&lt;span style=&quot;text-align: center; text-wrap: nowrap;&quot;&gt;CommunityDto&lt;/span&gt;&lt;span style=&quot;background-color: initial;&quot;&gt;&amp;gt;&lt;/span&gt;&lt;br&gt;&lt;/p&gt;&lt;p style=&quot;margin: 0px 0px 0px 4px;&quot;&gt;&lt;span style=&quot;background-color: initial;&quot;&gt;&lt;br&gt;&lt;/span&gt;&lt;/p&gt;&lt;p style=&quot;margin: 0px 0px 0px 4px;&quot;&gt;&lt;span style=&quot;background-color: initial;&quot;&gt;+select(int postCode): List&amp;lt;&lt;/span&gt;&lt;span style=&quot;text-align: center; text-wrap: nowrap;&quot;&gt;CommunityDto&lt;/span&gt;&lt;span style=&quot;background-color: initial;&quot;&gt;&amp;gt;&lt;/span&gt;&lt;/p&gt;&lt;p style=&quot;margin: 0px 0px 0px 4px;&quot;&gt;&lt;span style=&quot;background-color: initial;&quot;&gt;&lt;br&gt;&lt;/span&gt;&lt;/p&gt;&lt;p style=&quot;margin: 0px 0px 0px 4px;&quot;&gt;+insert(&lt;span style=&quot;text-align: center; text-wrap: nowrap;&quot;&gt;CommunityDto&amp;nbsp;&lt;/span&gt;dto)&lt;/p&gt;&lt;p style=&quot;margin: 0px 0px 0px 4px;&quot;&gt;:String&lt;/p&gt;&lt;p style=&quot;margin: 0px 0px 0px 4px;&quot;&gt;&lt;br&gt;&lt;/p&gt;&lt;p style=&quot;margin: 0px 0px 0px 4px;&quot;&gt;+update(&lt;span style=&quot;text-align: center; text-wrap: nowrap;&quot;&gt;CommunityDto&amp;nbsp;&lt;/span&gt;dto)&lt;/p&gt;&lt;p style=&quot;margin: 0px 0px 0px 4px;&quot;&gt;:String&lt;/p&gt;&lt;p style=&quot;margin: 0px 0px 0px 4px;&quot;&gt;&lt;br&gt;&lt;/p&gt;&lt;p style=&quot;margin: 0px 0px 0px 4px;&quot;&gt;+delete(int postCode)&lt;/p&gt;&lt;p style=&quot;margin: 0px 0px 0px 4px;&quot;&gt;:String&lt;/p&gt;" style="verticalAlign=top;align=left;overflow=fill;fontSize=12;fontFamily=Helvetica;html=1;whiteSpace=wrap;shadow=1;" parent="mxSxCT3K7TG5ama-A4u--1" vertex="1">
          <mxGeometry x="-2440" y="520" width="240" height="400" as="geometry" />
        </mxCell>
        <mxCell id="8fm8BEINYyHVR1qGwP7b-36" value="회원&lt;br&gt;테이블" style="shape=cylinder3;whiteSpace=wrap;html=1;boundedLbl=1;backgroundOutline=1;size=15;" parent="mxSxCT3K7TG5ama-A4u--1" vertex="1">
          <mxGeometry x="-2140" y="650" width="50" height="70" as="geometry" />
        </mxCell>
        <mxCell id="8fm8BEINYyHVR1qGwP7b-42" value="CommunityDao" style="text;html=1;align=center;verticalAlign=middle;resizable=0;points=[];autosize=1;strokeColor=none;fillColor=none;" parent="mxSxCT3K7TG5ama-A4u--1" vertex="1">
          <mxGeometry x="-2375" y="490" width="110" height="30" as="geometry" />
        </mxCell>
        <mxCell id="8fm8BEINYyHVR1qGwP7b-43" value="OrderDao" style="text;html=1;align=center;verticalAlign=middle;resizable=0;points=[];autosize=1;strokeColor=none;fillColor=none;" parent="mxSxCT3K7TG5ama-A4u--1" vertex="1">
          <mxGeometry x="-3190" y="970" width="80" height="30" as="geometry" />
        </mxCell>
        <mxCell id="8fm8BEINYyHVR1qGwP7b-44" value="NotifyDao" style="text;html=1;align=center;verticalAlign=middle;resizable=0;points=[];autosize=1;strokeColor=none;fillColor=none;" parent="mxSxCT3K7TG5ama-A4u--1" vertex="1">
          <mxGeometry x="-2760" y="970" width="80" height="30" as="geometry" />
        </mxCell>
        <mxCell id="8fm8BEINYyHVR1qGwP7b-45" value="Persistence Layer(영속 계층)&lt;br&gt;- DB 연결영역, 왠만해선 바뀌지 않는다" style="rounded=0;whiteSpace=wrap;html=1;" parent="mxSxCT3K7TG5ama-A4u--1" vertex="1">
          <mxGeometry x="-3240" y="30" width="1560" height="50" as="geometry" />
        </mxCell>
        <mxCell id="8fm8BEINYyHVR1qGwP7b-49" value="&lt;p style=&quot;margin:0px;margin-top:4px;text-align:center;&quot;&gt;&lt;b&gt;결제&amp;nbsp; Class&lt;/b&gt;&lt;/p&gt;&lt;hr size=&quot;1&quot;&gt;&lt;p style=&quot;margin:0px;margin-left:4px;&quot;&gt;+ paymentStatus : String&lt;/p&gt;&lt;p style=&quot;margin:0px;margin-left:4px;&quot;&gt;+ paymentMethod : String&lt;br&gt;&lt;/p&gt;&lt;p style=&quot;margin:0px;margin-left:4px;&quot;&gt;&lt;br&gt;&lt;/p&gt;&lt;p style=&quot;margin:0px;margin-left:4px;&quot;&gt;&lt;br&gt;&lt;/p&gt;&lt;p style=&quot;margin:0px;margin-left:4px;&quot;&gt;&lt;br&gt;&lt;/p&gt;" style="verticalAlign=top;align=left;overflow=fill;fontSize=12;fontFamily=Helvetica;html=1;whiteSpace=wrap;shadow=1;" parent="mxSxCT3K7TG5ama-A4u--1" vertex="1">
          <mxGeometry x="-2000" y="200" width="160" height="200" as="geometry" />
        </mxCell>
        <mxCell id="8fm8BEINYyHVR1qGwP7b-50" value="&lt;p style=&quot;margin:0px;margin-top:4px;text-align:center;&quot;&gt;&lt;b&gt;결제&amp;nbsp; Class&lt;/b&gt;&lt;/p&gt;&lt;hr size=&quot;1&quot;&gt;&lt;p style=&quot;margin:0px;margin-left:4px;&quot;&gt;+ paymentStatus : String&lt;/p&gt;&lt;p style=&quot;margin:0px;margin-left:4px;&quot;&gt;+ paymentMethod : String&lt;br&gt;&lt;/p&gt;&lt;p style=&quot;margin:0px;margin-left:4px;&quot;&gt;&lt;br&gt;&lt;/p&gt;&lt;p style=&quot;margin:0px;margin-left:4px;&quot;&gt;&lt;br&gt;&lt;/p&gt;&lt;p style=&quot;margin:0px;margin-left:4px;&quot;&gt;&lt;br&gt;&lt;/p&gt;" style="verticalAlign=top;align=left;overflow=fill;fontSize=12;fontFamily=Helvetica;html=1;whiteSpace=wrap;shadow=1;" parent="mxSxCT3K7TG5ama-A4u--1" vertex="1">
          <mxGeometry x="-2440" y="1000" width="240" height="400" as="geometry" />
        </mxCell>
        <mxCell id="jOQ6RQaYyRkf9lb98vIc-1" value="PaymentDto" style="text;html=1;align=center;verticalAlign=middle;resizable=0;points=[];autosize=1;strokeColor=none;fillColor=none;" vertex="1" parent="mxSxCT3K7TG5ama-A4u--1">
          <mxGeometry x="-1967.5" y="170" width="90" height="30" as="geometry" />
        </mxCell>
        <mxCell id="jOQ6RQaYyRkf9lb98vIc-7" value="결제&lt;br&gt;테이블" style="shape=cylinder3;whiteSpace=wrap;html=1;boundedLbl=1;backgroundOutline=1;size=15;" vertex="1" parent="mxSxCT3K7TG5ama-A4u--1">
          <mxGeometry x="-2147.5" y="1130" width="50" height="70" as="geometry" />
        </mxCell>
        <mxCell id="jOQ6RQaYyRkf9lb98vIc-8" value="" style="endArrow=none;html=1;rounded=0;entryX=0;entryY=0;entryDx=0;entryDy=45;entryPerimeter=0;exitX=1.001;exitY=0.438;exitDx=0;exitDy=0;exitPerimeter=0;" edge="1" parent="mxSxCT3K7TG5ama-A4u--1" source="8fm8BEINYyHVR1qGwP7b-11" target="8fm8BEINYyHVR1qGwP7b-15">
          <mxGeometry width="50" height="50" relative="1" as="geometry">
            <mxPoint x="-2992.5" y="690" as="sourcePoint" />
            <mxPoint x="-2942.5" y="640" as="targetPoint" />
          </mxGeometry>
        </mxCell>
        <mxCell id="jOQ6RQaYyRkf9lb98vIc-9" value="" style="endArrow=none;html=1;rounded=0;exitX=1.01;exitY=0.436;exitDx=0;exitDy=0;exitPerimeter=0;entryX=0;entryY=0;entryDx=0;entryDy=45;entryPerimeter=0;" edge="1" parent="mxSxCT3K7TG5ama-A4u--1" source="8fm8BEINYyHVR1qGwP7b-12" target="8fm8BEINYyHVR1qGwP7b-16">
          <mxGeometry width="50" height="50" relative="1" as="geometry">
            <mxPoint x="-2550" y="720" as="sourcePoint" />
            <mxPoint x="-2500" y="670" as="targetPoint" />
          </mxGeometry>
        </mxCell>
        <mxCell id="jOQ6RQaYyRkf9lb98vIc-11" value="" style="endArrow=none;html=1;rounded=0;entryX=0;entryY=0;entryDx=0;entryDy=45;entryPerimeter=0;exitX=1.004;exitY=0.434;exitDx=0;exitDy=0;exitPerimeter=0;" edge="1" parent="mxSxCT3K7TG5ama-A4u--1" source="8fm8BEINYyHVR1qGwP7b-35" target="8fm8BEINYyHVR1qGwP7b-36">
          <mxGeometry width="50" height="50" relative="1" as="geometry">
            <mxPoint x="-2130" y="720" as="sourcePoint" />
            <mxPoint x="-2080" y="670" as="targetPoint" />
          </mxGeometry>
        </mxCell>
        <mxCell id="jOQ6RQaYyRkf9lb98vIc-12" value="" style="endArrow=none;html=1;rounded=0;entryX=0;entryY=0;entryDx=0;entryDy=45;entryPerimeter=0;exitX=1.001;exitY=0.44;exitDx=0;exitDy=0;exitPerimeter=0;" edge="1" parent="mxSxCT3K7TG5ama-A4u--1" source="8fm8BEINYyHVR1qGwP7b-13" target="8fm8BEINYyHVR1qGwP7b-17">
          <mxGeometry width="50" height="50" relative="1" as="geometry">
            <mxPoint x="-2990" y="1160" as="sourcePoint" />
            <mxPoint x="-2940" y="1110" as="targetPoint" />
          </mxGeometry>
        </mxCell>
        <mxCell id="jOQ6RQaYyRkf9lb98vIc-13" value="" style="endArrow=none;html=1;rounded=0;entryX=0;entryY=0;entryDx=0;entryDy=45;entryPerimeter=0;exitX=1.004;exitY=0.442;exitDx=0;exitDy=0;exitPerimeter=0;" edge="1" parent="mxSxCT3K7TG5ama-A4u--1" source="8fm8BEINYyHVR1qGwP7b-14" target="8fm8BEINYyHVR1qGwP7b-19">
          <mxGeometry width="50" height="50" relative="1" as="geometry">
            <mxPoint x="-2470" y="1160" as="sourcePoint" />
            <mxPoint x="-2420" y="1110" as="targetPoint" />
          </mxGeometry>
        </mxCell>
        <mxCell id="jOQ6RQaYyRkf9lb98vIc-14" value="" style="endArrow=none;html=1;rounded=0;entryX=0;entryY=0;entryDx=0;entryDy=45;entryPerimeter=0;exitX=0.998;exitY=0.436;exitDx=0;exitDy=0;exitPerimeter=0;" edge="1" parent="mxSxCT3K7TG5ama-A4u--1" source="8fm8BEINYyHVR1qGwP7b-50" target="jOQ6RQaYyRkf9lb98vIc-7">
          <mxGeometry width="50" height="50" relative="1" as="geometry">
            <mxPoint x="-2210" y="1180" as="sourcePoint" />
            <mxPoint x="-2160" y="1130" as="targetPoint" />
          </mxGeometry>
        </mxCell>
        <mxCell id="jOQ6RQaYyRkf9lb98vIc-15" value="Presentation Layer(프레젠테이션 계층)&lt;br&gt;- 사용자의 요청사항을 받아서 해당 서비스로 연결해주고 처리 결과를 사용자에게 알려주는 영역" style="rounded=0;whiteSpace=wrap;html=1;" vertex="1" parent="mxSxCT3K7TG5ama-A4u--1">
          <mxGeometry x="-3237.5" y="2080" width="1277.5" height="50" as="geometry" />
        </mxCell>
        <mxCell id="jOQ6RQaYyRkf9lb98vIc-16" value="" style="rounded=0;whiteSpace=wrap;html=1;fillColor=none;" vertex="1" parent="mxSxCT3K7TG5ama-A4u--1">
          <mxGeometry x="-2767.5" y="2170" width="807.5" height="2150" as="geometry" />
        </mxCell>
        <mxCell id="jOQ6RQaYyRkf9lb98vIc-17" value="" style="rounded=0;whiteSpace=wrap;html=1;" vertex="1" parent="mxSxCT3K7TG5ama-A4u--1">
          <mxGeometry x="-2360" y="2210" width="360" height="2060" as="geometry" />
        </mxCell>
        <mxCell id="jOQ6RQaYyRkf9lb98vIc-18" value="View" style="text;html=1;align=center;verticalAlign=middle;resizable=0;points=[];autosize=1;strokeColor=default;fillColor=none;rounded=0;shadow=0;" vertex="1" parent="mxSxCT3K7TG5ama-A4u--1">
          <mxGeometry x="-3237.5" y="2170" width="50" height="30" as="geometry" />
        </mxCell>
        <mxCell id="jOQ6RQaYyRkf9lb98vIc-20" value="Controller" style="text;html=1;align=center;verticalAlign=middle;resizable=0;points=[];autosize=1;strokeColor=default;fillColor=none;" vertex="1" parent="mxSxCT3K7TG5ama-A4u--1">
          <mxGeometry x="-2767.5" y="2170" width="80" height="30" as="geometry" />
        </mxCell>
        <mxCell id="jOQ6RQaYyRkf9lb98vIc-21" value="&lt;p style=&quot;margin:0px;margin-top:4px;text-align:center;&quot;&gt;&lt;b&gt;Front Controller&amp;nbsp;&lt;/b&gt;&lt;/p&gt;&lt;hr size=&quot;1&quot;&gt;&lt;p style=&quot;margin:0px;margin-left:4px;&quot;&gt;- map : Map&amp;lt;String,Object&amp;gt;&lt;/p&gt;&lt;hr size=&quot;1&quot;&gt;&lt;p style=&quot;margin:0px;margin-left:4px;&quot;&gt;- init() : void&lt;/p&gt;&lt;p style=&quot;margin:0px;margin-left:4px;&quot;&gt;+execute(request,ServiceNo,param) : void&lt;br&gt;&lt;/p&gt;" style="verticalAlign=top;align=left;overflow=fill;fontSize=12;fontFamily=Helvetica;html=1;whiteSpace=wrap;shadow=1;" vertex="1" parent="mxSxCT3K7TG5ama-A4u--1">
          <mxGeometry x="-2700" y="2988.5" width="237.5" height="120" as="geometry" />
        </mxCell>
        <mxCell id="jOQ6RQaYyRkf9lb98vIc-22" value="" style="rounded=0;whiteSpace=wrap;html=1;" vertex="1" parent="mxSxCT3K7TG5ama-A4u--1">
          <mxGeometry x="-3230" y="2440" width="415" height="380" as="geometry" />
        </mxCell>
        <mxCell id="jOQ6RQaYyRkf9lb98vIc-24" value="&lt;p style=&quot;margin:0px;margin-top:4px;text-align:center;&quot;&gt;&lt;b&gt;로그인화면 View&lt;/b&gt;&lt;/p&gt;&lt;hr size=&quot;1&quot;&gt;&lt;p style=&quot;margin:0px;margin-left:4px;&quot;&gt;+ controller : FrontController&lt;/p&gt;&lt;hr size=&quot;1&quot;&gt;&lt;p style=&quot;margin:0px;margin-left:4px;&quot;&gt;&lt;br&gt;&lt;/p&gt;" style="verticalAlign=top;align=left;overflow=fill;fontSize=12;fontFamily=Helvetica;html=1;whiteSpace=wrap;shadow=1;" vertex="1" parent="mxSxCT3K7TG5ama-A4u--1">
          <mxGeometry x="-3217.5" y="2480" width="175" height="110" as="geometry" />
        </mxCell>
        <mxCell id="jOQ6RQaYyRkf9lb98vIc-25" value="&lt;p style=&quot;margin:0px;margin-top:4px;text-align:center;&quot;&gt;&lt;b&gt;메인 화면&amp;nbsp;&lt;/b&gt;&lt;b style=&quot;background-color: initial;&quot;&gt;View&lt;/b&gt;&lt;/p&gt;&lt;hr size=&quot;1&quot;&gt;&lt;p style=&quot;margin:0px;margin-left:4px;&quot;&gt;+ controller : FrontController&lt;br&gt;&lt;/p&gt;&lt;hr size=&quot;1&quot;&gt;&lt;p style=&quot;margin:0px;margin-left:4px;&quot;&gt;&lt;br&gt;&lt;/p&gt;" style="verticalAlign=top;align=left;overflow=fill;fontSize=12;fontFamily=Helvetica;html=1;whiteSpace=wrap;shadow=1;" vertex="1" parent="mxSxCT3K7TG5ama-A4u--1">
          <mxGeometry x="-3008.25" y="2565" width="181.5" height="130" as="geometry" />
        </mxCell>
        <mxCell id="jOQ6RQaYyRkf9lb98vIc-26" value="&lt;p style=&quot;margin:0px;margin-top:4px;text-align:center;&quot;&gt;&lt;b&gt;프로젝트 검색 결과&amp;nbsp;&lt;/b&gt;&lt;b style=&quot;background-color: initial;&quot;&gt;View&lt;/b&gt;&lt;/p&gt;&lt;hr size=&quot;1&quot;&gt;&lt;p style=&quot;margin:0px;margin-left:4px;&quot;&gt;+ controller : FrontController&lt;br&gt;&lt;/p&gt;&lt;hr size=&quot;1&quot;&gt;&lt;p style=&quot;margin:0px;margin-left:4px;&quot;&gt;&lt;br&gt;&lt;/p&gt;" style="verticalAlign=top;align=left;overflow=fill;fontSize=12;fontFamily=Helvetica;html=1;whiteSpace=wrap;shadow=1;" vertex="1" parent="mxSxCT3K7TG5ama-A4u--1">
          <mxGeometry x="-3217.5" y="2675" width="180" height="110" as="geometry" />
        </mxCell>
        <mxCell id="jOQ6RQaYyRkf9lb98vIc-30" value="" style="endArrow=none;html=1;rounded=0;exitX=1;exitY=0.5;exitDx=0;exitDy=0;entryX=0;entryY=0.472;entryDx=0;entryDy=0;entryPerimeter=0;" edge="1" parent="mxSxCT3K7TG5ama-A4u--1" source="jOQ6RQaYyRkf9lb98vIc-22" target="jOQ6RQaYyRkf9lb98vIc-21">
          <mxGeometry width="50" height="50" relative="1" as="geometry">
            <mxPoint x="-2687.5" y="2500" as="sourcePoint" />
            <mxPoint x="-2697.5" y="2600" as="targetPoint" />
          </mxGeometry>
        </mxCell>
        <mxCell id="jOQ6RQaYyRkf9lb98vIc-31" value="" style="endArrow=none;html=1;rounded=0;exitX=1;exitY=0.5;exitDx=0;exitDy=0;entryX=0;entryY=0.5;entryDx=0;entryDy=0;" edge="1" parent="mxSxCT3K7TG5ama-A4u--1" source="jOQ6RQaYyRkf9lb98vIc-23" target="jOQ6RQaYyRkf9lb98vIc-21">
          <mxGeometry width="50" height="50" relative="1" as="geometry">
            <mxPoint x="-2809.5" y="2418" as="sourcePoint" />
            <mxPoint x="-2687.5" y="2488" as="targetPoint" />
          </mxGeometry>
        </mxCell>
        <mxCell id="jOQ6RQaYyRkf9lb98vIc-37" value="" style="endArrow=none;html=1;rounded=0;exitX=1.019;exitY=0.452;exitDx=0;exitDy=0;entryX=0;entryY=0.5;entryDx=0;entryDy=0;exitPerimeter=0;" edge="1" parent="mxSxCT3K7TG5ama-A4u--1" source="jOQ6RQaYyRkf9lb98vIc-24" target="jOQ6RQaYyRkf9lb98vIc-25">
          <mxGeometry width="50" height="50" relative="1" as="geometry">
            <mxPoint x="-2807.5" y="2410" as="sourcePoint" />
            <mxPoint x="-2997.5" y="2380" as="targetPoint" />
          </mxGeometry>
        </mxCell>
        <mxCell id="jOQ6RQaYyRkf9lb98vIc-38" value="" style="endArrow=none;html=1;rounded=0;exitX=1;exitY=0.5;exitDx=0;exitDy=0;entryX=0;entryY=0.5;entryDx=0;entryDy=0;" edge="1" parent="mxSxCT3K7TG5ama-A4u--1" source="jOQ6RQaYyRkf9lb98vIc-26" target="jOQ6RQaYyRkf9lb98vIc-25">
          <mxGeometry width="50" height="50" relative="1" as="geometry">
            <mxPoint x="-3048.5" y="2300" as="sourcePoint" />
            <mxPoint x="-2997.5" y="2380" as="targetPoint" />
          </mxGeometry>
        </mxCell>
        <mxCell id="jOQ6RQaYyRkf9lb98vIc-42" value="" style="endArrow=none;html=1;rounded=0;entryX=0;entryY=0.5;entryDx=0;entryDy=0;exitX=1;exitY=0.25;exitDx=0;exitDy=0;startArrow=diamondThin;startFill=1;startSize=12;" edge="1" parent="mxSxCT3K7TG5ama-A4u--1" source="jOQ6RQaYyRkf9lb98vIc-21" target="XBgEdrSx74rCmCJo9hQQ-111">
          <mxGeometry width="50" height="50" relative="1" as="geometry">
            <mxPoint x="-2537.5" y="2600" as="sourcePoint" />
            <mxPoint x="-2310.42" y="2693.97" as="targetPoint" />
          </mxGeometry>
        </mxCell>
        <mxCell id="jOQ6RQaYyRkf9lb98vIc-43" value="/project_search" style="text;html=1;align=center;verticalAlign=middle;resizable=0;points=[];autosize=1;strokeColor=none;fillColor=none;" vertex="1" parent="mxSxCT3K7TG5ama-A4u--1">
          <mxGeometry x="-3217.5" y="2785" width="110" height="30" as="geometry" />
        </mxCell>
        <mxCell id="jOQ6RQaYyRkf9lb98vIc-44" value="/project_main" style="text;html=1;align=center;verticalAlign=middle;resizable=0;points=[];autosize=1;strokeColor=none;fillColor=none;" vertex="1" parent="mxSxCT3K7TG5ama-A4u--1">
          <mxGeometry x="-3008.25" y="2695" width="100" height="30" as="geometry" />
        </mxCell>
        <mxCell id="jOQ6RQaYyRkf9lb98vIc-45" value="/project_login" style="text;html=1;align=center;verticalAlign=middle;resizable=0;points=[];autosize=1;strokeColor=none;fillColor=none;" vertex="1" parent="mxSxCT3K7TG5ama-A4u--1">
          <mxGeometry x="-3217.5" y="2590" width="90" height="30" as="geometry" />
        </mxCell>
        <mxCell id="jOQ6RQaYyRkf9lb98vIc-46" value="/Manage_Authentication" style="text;html=1;align=center;verticalAlign=middle;resizable=0;points=[];autosize=1;strokeColor=none;fillColor=none;" vertex="1" parent="mxSxCT3K7TG5ama-A4u--1">
          <mxGeometry x="-2347.5" y="2455" width="150" height="30" as="geometry" />
        </mxCell>
        <mxCell id="jOQ6RQaYyRkf9lb98vIc-50" value="&lt;p style=&quot;margin:0px;margin-top:4px;text-align:center;&quot;&gt;&lt;b&gt;로그인화면&amp;nbsp;&lt;/b&gt;&lt;b style=&quot;background-color: initial;&quot;&gt;View&lt;/b&gt;&lt;/p&gt;&lt;hr size=&quot;1&quot;&gt;&lt;p style=&quot;margin:0px;margin-left:4px;&quot;&gt;+ controller : FrontController&lt;br&gt;&lt;/p&gt;&lt;hr size=&quot;1&quot;&gt;&lt;p style=&quot;margin:0px;margin-left:4px;&quot;&gt;&lt;br&gt;&lt;/p&gt;" style="verticalAlign=top;align=left;overflow=fill;fontSize=12;fontFamily=Helvetica;html=1;whiteSpace=wrap;" vertex="1" parent="mxSxCT3K7TG5ama-A4u--1">
          <mxGeometry x="-3220" y="3280" width="180" height="100" as="geometry" />
        </mxCell>
        <mxCell id="jOQ6RQaYyRkf9lb98vIc-52" value="&lt;p style=&quot;margin:0px;margin-top:4px;text-align:center;&quot;&gt;&lt;span&gt;프로젝트 관리&amp;nbsp;&lt;/span&gt;&lt;b style=&quot;background-color: initial;&quot;&gt;View&lt;/b&gt;&lt;/p&gt;&lt;hr size=&quot;1&quot;&gt;&lt;p style=&quot;margin:0px;margin-left:4px;&quot;&gt;&lt;span style=&quot;font-weight: 400;&quot;&gt;+ controller : FrontController&lt;/span&gt;&lt;br&gt;&lt;/p&gt;&lt;hr size=&quot;1&quot;&gt;&lt;p style=&quot;margin:0px;margin-left:4px;&quot;&gt;&lt;br&gt;&lt;/p&gt;" style="verticalAlign=top;align=left;overflow=fill;fontSize=12;fontFamily=Helvetica;html=1;whiteSpace=wrap;fontStyle=1" vertex="1" parent="mxSxCT3K7TG5ama-A4u--1">
          <mxGeometry x="-3220" y="3550" width="180" height="90" as="geometry" />
        </mxCell>
        <mxCell id="jOQ6RQaYyRkf9lb98vIc-53" value="&lt;p style=&quot;margin:0px;margin-top:4px;text-align:center;&quot;&gt;&lt;b&gt;회원 관리&amp;nbsp;&lt;/b&gt;&lt;b style=&quot;background-color: initial;&quot;&gt;View&lt;/b&gt;&lt;/p&gt;&lt;hr size=&quot;1&quot;&gt;&lt;p style=&quot;margin:0px;margin-left:4px;&quot;&gt;+ controller : FrontController&lt;br&gt;&lt;/p&gt;&lt;hr size=&quot;1&quot;&gt;&lt;p style=&quot;margin:0px;margin-left:4px;&quot;&gt;&lt;br&gt;&lt;/p&gt;" style="verticalAlign=top;align=left;overflow=fill;fontSize=12;fontFamily=Helvetica;html=1;whiteSpace=wrap;" vertex="1" parent="mxSxCT3K7TG5ama-A4u--1">
          <mxGeometry x="-3220" y="3420" width="180" height="90" as="geometry" />
        </mxCell>
        <mxCell id="jOQ6RQaYyRkf9lb98vIc-54" value="&lt;div&gt;&lt;br&gt;&lt;/div&gt;" style="text;html=1;align=center;verticalAlign=middle;resizable=0;points=[];autosize=1;strokeColor=none;fillColor=none;" vertex="1" parent="mxSxCT3K7TG5ama-A4u--1">
          <mxGeometry x="-3032.5" y="2210" width="20" height="30" as="geometry" />
        </mxCell>
        <mxCell id="jOQ6RQaYyRkf9lb98vIc-55" value="&lt;p style=&quot;margin:0px;margin-top:4px;text-align:center;&quot;&gt;&lt;span&gt;커뮤니티&amp;nbsp; 관리&amp;nbsp;&lt;/span&gt;&lt;b style=&quot;background-color: initial;&quot;&gt;View&lt;/b&gt;&lt;/p&gt;&lt;hr size=&quot;1&quot;&gt;&lt;p style=&quot;margin:0px;margin-left:4px;&quot;&gt;&lt;span style=&quot;font-weight: 400;&quot;&gt;+ controller : FrontController&lt;/span&gt;&lt;br&gt;&lt;/p&gt;&lt;hr size=&quot;1&quot;&gt;&lt;p style=&quot;margin:0px;margin-left:4px;&quot;&gt;&lt;br&gt;&lt;/p&gt;" style="verticalAlign=top;align=left;overflow=fill;fontSize=12;fontFamily=Helvetica;html=1;whiteSpace=wrap;fontStyle=1" vertex="1" parent="mxSxCT3K7TG5ama-A4u--1">
          <mxGeometry x="-3220" y="3680" width="180" height="90" as="geometry" />
        </mxCell>
        <mxCell id="jOQ6RQaYyRkf9lb98vIc-56" value="&lt;p style=&quot;margin:0px;margin-top:4px;text-align:center;&quot;&gt;&lt;b&gt;MemberController Class&lt;/b&gt;&lt;/p&gt;&lt;hr size=&quot;1&quot;&gt;&lt;p style=&quot;margin:0px;margin-left:4px;&quot;&gt;- service : MemberService&lt;br&gt;&lt;/p&gt;&lt;hr size=&quot;1&quot;&gt;&lt;p style=&quot;margin:0px;margin-left:4px;&quot;&gt;+ execute(ServiceNo,param) : Map&amp;lt;String,Object&amp;gt;&lt;br&gt;&lt;/p&gt;&lt;p style=&quot;margin:0px;margin-left:4px;&quot;&gt;&lt;br&gt;&lt;/p&gt;" style="verticalAlign=top;align=left;overflow=fill;fontSize=12;fontFamily=Helvetica;html=1;whiteSpace=wrap;shadow=1;" vertex="1" parent="mxSxCT3K7TG5ama-A4u--1">
          <mxGeometry x="-2347.5" y="2360" width="340" height="80" as="geometry" />
        </mxCell>
        <mxCell id="UAAGlxL8E-bhWDBI-pss-7" value="회원 Viewer" style="text;html=1;align=center;verticalAlign=middle;resizable=0;points=[];autosize=1;strokeColor=default;fillColor=none;rounded=0;" parent="mxSxCT3K7TG5ama-A4u--1" vertex="1">
          <mxGeometry x="-3230" y="2440" width="90" height="30" as="geometry" />
        </mxCell>
        <mxCell id="UAAGlxL8E-bhWDBI-pss-9" value="관리자 Viewer" style="text;html=1;align=center;verticalAlign=middle;resizable=0;points=[];autosize=1;strokeColor=default;fillColor=none;" parent="mxSxCT3K7TG5ama-A4u--1" vertex="1">
          <mxGeometry x="-3230" y="3230" width="100" height="30" as="geometry" />
        </mxCell>
        <mxCell id="XBgEdrSx74rCmCJo9hQQ-4" value="&lt;p style=&quot;margin:0px;margin-top:4px;text-align:center;&quot;&gt;&lt;b&gt;메인 화면&amp;nbsp;&lt;/b&gt;&lt;b style=&quot;background-color: initial;&quot;&gt;View&lt;/b&gt;&lt;/p&gt;&lt;hr size=&quot;1&quot;&gt;&lt;p style=&quot;margin:0px;margin-left:4px;&quot;&gt;+ controller : FrontController&lt;br&gt;&lt;/p&gt;&lt;hr size=&quot;1&quot;&gt;&lt;p style=&quot;margin:0px;margin-left:4px;&quot;&gt;&lt;br&gt;&lt;/p&gt;" style="verticalAlign=top;align=left;overflow=fill;fontSize=12;fontFamily=Helvetica;html=1;whiteSpace=wrap;shadow=1;" vertex="1" parent="mxSxCT3K7TG5ama-A4u--1">
          <mxGeometry x="-3000" y="3460" width="173.25" height="130" as="geometry" />
        </mxCell>
        <mxCell id="XBgEdrSx74rCmCJo9hQQ-6" value="" style="endArrow=none;html=1;rounded=0;entryX=1;entryY=0.5;entryDx=0;entryDy=0;exitX=0;exitY=0.5;exitDx=0;exitDy=0;" edge="1" parent="mxSxCT3K7TG5ama-A4u--1" source="XBgEdrSx74rCmCJo9hQQ-4" target="jOQ6RQaYyRkf9lb98vIc-50">
          <mxGeometry width="50" height="50" relative="1" as="geometry">
            <mxPoint x="-2880" y="3430" as="sourcePoint" />
            <mxPoint x="-2830" y="3380" as="targetPoint" />
          </mxGeometry>
        </mxCell>
        <mxCell id="XBgEdrSx74rCmCJo9hQQ-7" value="" style="endArrow=none;html=1;rounded=0;entryX=1;entryY=0.5;entryDx=0;entryDy=0;exitX=0;exitY=0.5;exitDx=0;exitDy=0;" edge="1" parent="mxSxCT3K7TG5ama-A4u--1" source="XBgEdrSx74rCmCJo9hQQ-4" target="jOQ6RQaYyRkf9lb98vIc-53">
          <mxGeometry width="50" height="50" relative="1" as="geometry">
            <mxPoint x="-2880" y="3430" as="sourcePoint" />
            <mxPoint x="-2830" y="3380" as="targetPoint" />
          </mxGeometry>
        </mxCell>
        <mxCell id="XBgEdrSx74rCmCJo9hQQ-8" value="" style="endArrow=none;html=1;rounded=0;entryX=1;entryY=0.5;entryDx=0;entryDy=0;exitX=0;exitY=0.5;exitDx=0;exitDy=0;" edge="1" parent="mxSxCT3K7TG5ama-A4u--1" source="XBgEdrSx74rCmCJo9hQQ-4" target="jOQ6RQaYyRkf9lb98vIc-52">
          <mxGeometry width="50" height="50" relative="1" as="geometry">
            <mxPoint x="-2880" y="3430" as="sourcePoint" />
            <mxPoint x="-2830" y="3380" as="targetPoint" />
          </mxGeometry>
        </mxCell>
        <mxCell id="XBgEdrSx74rCmCJo9hQQ-9" value="" style="endArrow=none;html=1;rounded=0;entryX=0;entryY=0.5;entryDx=0;entryDy=0;exitX=1;exitY=0.5;exitDx=0;exitDy=0;" edge="1" parent="mxSxCT3K7TG5ama-A4u--1" source="jOQ6RQaYyRkf9lb98vIc-55" target="XBgEdrSx74rCmCJo9hQQ-4">
          <mxGeometry width="50" height="50" relative="1" as="geometry">
            <mxPoint x="-3020" y="3670" as="sourcePoint" />
            <mxPoint x="-2970" y="3620" as="targetPoint" />
          </mxGeometry>
        </mxCell>
        <mxCell id="XBgEdrSx74rCmCJo9hQQ-86" value="" style="rounded=0;whiteSpace=wrap;html=1;" vertex="1" parent="mxSxCT3K7TG5ama-A4u--1">
          <mxGeometry x="-1940" y="2170" width="340" height="2150" as="geometry" />
        </mxCell>
        <mxCell id="XBgEdrSx74rCmCJo9hQQ-87" value="Business Layer" style="rounded=0;whiteSpace=wrap;html=1;" vertex="1" parent="mxSxCT3K7TG5ama-A4u--1">
          <mxGeometry x="-1940" y="2080" width="340" height="50" as="geometry" />
        </mxCell>
        <mxCell id="XBgEdrSx74rCmCJo9hQQ-88" value="SingleTon Pattern" style="text;html=1;align=center;verticalAlign=middle;resizable=0;points=[];autosize=1;strokeColor=none;fillColor=none;" vertex="1" parent="mxSxCT3K7TG5ama-A4u--1">
          <mxGeometry x="-1940" y="2140" width="120" height="30" as="geometry" />
        </mxCell>
        <mxCell id="XBgEdrSx74rCmCJo9hQQ-89" value="Persistance Layer" style="rounded=0;whiteSpace=wrap;html=1;fillColor=#d5e8d4;strokeColor=#82b366;" vertex="1" parent="mxSxCT3K7TG5ama-A4u--1">
          <mxGeometry x="-1570" y="2080" width="480" height="50" as="geometry" />
        </mxCell>
        <mxCell id="XBgEdrSx74rCmCJo9hQQ-90" value="" style="rounded=0;whiteSpace=wrap;html=1;" vertex="1" parent="mxSxCT3K7TG5ama-A4u--1">
          <mxGeometry x="-1570" y="2170" width="480" height="2150" as="geometry" />
        </mxCell>
        <mxCell id="XBgEdrSx74rCmCJo9hQQ-91" value="회원&lt;br&gt;테이블" style="shape=cylinder3;whiteSpace=wrap;html=1;boundedLbl=1;backgroundOutline=1;size=15;" vertex="1" parent="mxSxCT3K7TG5ama-A4u--1">
          <mxGeometry x="-1040" y="2200" width="50" height="70" as="geometry" />
        </mxCell>
        <mxCell id="XBgEdrSx74rCmCJo9hQQ-92" value="" style="endArrow=open;html=1;rounded=0;entryX=0;entryY=0.5;entryDx=0;entryDy=0;startArrow=none;startFill=0;startSize=12;exitX=1;exitY=0.384;exitDx=0;exitDy=0;exitPerimeter=0;endFill=0;dashed=1;" edge="1" parent="mxSxCT3K7TG5ama-A4u--1" source="XBgEdrSx74rCmCJo9hQQ-94" target="XBgEdrSx74rCmCJo9hQQ-95">
          <mxGeometry width="50" height="50" relative="1" as="geometry">
            <mxPoint x="-1615" y="2285" as="sourcePoint" />
            <mxPoint x="-1656.7600000000002" y="2232.8" as="targetPoint" />
          </mxGeometry>
        </mxCell>
        <mxCell id="XBgEdrSx74rCmCJo9hQQ-127" value="use" style="edgeLabel;html=1;align=center;verticalAlign=middle;resizable=0;points=[];" vertex="1" connectable="0" parent="XBgEdrSx74rCmCJo9hQQ-92">
          <mxGeometry x="-0.1668" y="-2" relative="1" as="geometry">
            <mxPoint x="-1" y="-2" as="offset" />
          </mxGeometry>
        </mxCell>
        <mxCell id="XBgEdrSx74rCmCJo9hQQ-93" value="" style="endArrow=none;html=1;rounded=0;startArrow=open;startFill=0;entryX=0;entryY=0.5;entryDx=0;entryDy=0;entryPerimeter=0;" edge="1" parent="mxSxCT3K7TG5ama-A4u--1" target="XBgEdrSx74rCmCJo9hQQ-91">
          <mxGeometry width="50" height="50" relative="1" as="geometry">
            <mxPoint x="-1495" y="2235" as="sourcePoint" />
            <mxPoint x="-1035" y="2235" as="targetPoint" />
          </mxGeometry>
        </mxCell>
        <mxCell id="XBgEdrSx74rCmCJo9hQQ-95" value="&lt;p style=&quot;margin:0px;margin-top:4px;text-align:center;&quot;&gt;&lt;b&gt;MemberDao Class&lt;/b&gt;&lt;/p&gt;&lt;hr size=&quot;1&quot;&gt;&lt;p style=&quot;border-color: var(--border-color); margin: 0px 0px 0px 4px;&quot;&gt;- id : String&lt;/p&gt;&lt;p style=&quot;border-color: var(--border-color); margin: 0px 0px 0px 4px;&quot;&gt;- pw : String&lt;/p&gt;&lt;p style=&quot;border-color: var(--border-color); margin: 0px 0px 0px 4px;&quot;&gt;- url : String&lt;/p&gt;&lt;p style=&quot;border-color: var(--border-color); margin: 0px 0px 0px 4px;&quot;&gt;&lt;font color=&quot;#ff3333&quot;&gt;- conn : Connection&lt;/font&gt;&lt;/p&gt;&lt;p style=&quot;border-color: var(--border-color); margin: 0px 0px 0px 4px;&quot;&gt;&lt;font color=&quot;#ff3333&quot;&gt;- pstmt : PreparedStatement&lt;/font&gt;&lt;/p&gt;&lt;p style=&quot;border-color: var(--border-color); margin: 0px 0px 0px 4px;&quot;&gt;&lt;font color=&quot;#ff3333&quot;&gt;- rs : ResultSet&lt;/font&gt;&lt;/p&gt;&lt;p style=&quot;border-color: var(--border-color); margin: 0px 0px 0px 4px;&quot;&gt;&lt;font color=&quot;#0000ff&quot;&gt;- instance : MemberDao&lt;/font&gt;&lt;/p&gt;&lt;hr size=&quot;1&quot;&gt;&lt;p style=&quot;border-color: var(--border-color); margin: 0px 0px 0px 4px;&quot;&gt;+select() : List&amp;lt;MemberDto&amp;gt;&lt;br style=&quot;border-color: var(--border-color);&quot;&gt;&lt;/p&gt;&lt;p style=&quot;border-color: var(--border-color); margin: 0px 0px 0px 4px;&quot;&gt;+insert(MemberDto dto) : String&lt;/p&gt;&lt;p style=&quot;border-color: var(--border-color); margin: 0px 0px 0px 4px;&quot;&gt;+update(MemberDto dto) : String&lt;/p&gt;&lt;p style=&quot;border-color: var(--border-color); margin: 0px 0px 0px 4px;&quot;&gt;+delete(String id) : String&lt;/p&gt;&lt;p style=&quot;border-color: var(--border-color); margin: 0px 0px 0px 4px;&quot;&gt;&lt;br&gt;&lt;/p&gt;&lt;p style=&quot;border-color: var(--border-color); margin: 0px 0px 0px 4px;&quot;&gt;&lt;font color=&quot;#0000ff&quot;&gt;+getInstance() : MemberDao&lt;/font&gt;&lt;/p&gt;" style="verticalAlign=top;align=left;overflow=fill;fontSize=12;fontFamily=Helvetica;html=1;whiteSpace=wrap;" vertex="1" parent="mxSxCT3K7TG5ama-A4u--1">
          <mxGeometry x="-1540" y="2187.5" width="270" height="235" as="geometry" />
        </mxCell>
        <mxCell id="XBgEdrSx74rCmCJo9hQQ-96" value="&lt;p style=&quot;margin:0px;margin-top:4px;text-align:center;&quot;&gt;&lt;b&gt;MemberDto&lt;/b&gt;&lt;/p&gt;&lt;hr size=&quot;1&quot;&gt;&lt;p style=&quot;margin: 0px 0px 0px 4px;&quot;&gt;- id : String&lt;/p&gt;&lt;p style=&quot;margin: 0px 0px 0px 4px;&quot;&gt;- pw : String&lt;/p&gt;&lt;p style=&quot;margin: 0px 0px 0px 4px;&quot;&gt;- name : String&lt;/p&gt;&lt;p style=&quot;margin: 0px 0px 0px 4px;&quot;&gt;- addr&amp;nbsp; : String&lt;/p&gt;&lt;p style=&quot;margin: 0px 0px 0px 4px;&quot;&gt;- tel : int&amp;nbsp;&lt;/p&gt;&lt;p style=&quot;margin: 0px 0px 0px 4px;&quot;&gt;- authority : int&lt;/p&gt;&lt;hr style=&quot;border-color: var(--border-color);&quot; size=&quot;1&quot;&gt;&lt;p style=&quot;margin:0px;margin-left:4px;&quot;&gt;+ ---&lt;/p&gt;" style="verticalAlign=top;align=left;overflow=fill;fontSize=12;fontFamily=Helvetica;html=1;whiteSpace=wrap;" vertex="1" parent="mxSxCT3K7TG5ama-A4u--1">
          <mxGeometry x="-1540" y="2480" width="270" height="153" as="geometry" />
        </mxCell>
        <mxCell id="XBgEdrSx74rCmCJo9hQQ-94" value="&lt;p style=&quot;margin:0px;margin-top:4px;text-align:center;&quot;&gt;&lt;b&gt;MemberService&lt;/b&gt;&lt;/p&gt;&lt;hr size=&quot;1&quot;&gt;&lt;p style=&quot;margin:0px;margin-left:4px;&quot;&gt;- dao : MemberDao&lt;/p&gt;&lt;p style=&quot;margin:0px;margin-left:4px;&quot;&gt;&lt;font color=&quot;#0000ff&quot;&gt;- instance : MemberService&lt;/font&gt;&lt;/p&gt;&lt;hr size=&quot;1&quot;&gt;&lt;p style=&quot;margin:0px;margin-left:4px;&quot;&gt;+ createUser(MemberDto dto) : boolean&lt;/p&gt;&lt;p style=&quot;margin:0px;margin-left:4px;&quot;&gt;+ findUser(String id) :&amp;nbsp;&lt;span style=&quot;background-color: initial;&quot;&gt;List&amp;lt;MemberDto&amp;gt;&lt;/span&gt;&lt;br&gt;&lt;/p&gt;&lt;p style=&quot;margin:0px;margin-left:4px;&quot;&gt;+ updateUser(&lt;span style=&quot;background-color: initial;&quot;&gt;MemberDto dto,String id&lt;/span&gt;&lt;span style=&quot;background-color: initial;&quot;&gt;) : boolean&lt;/span&gt;&lt;/p&gt;&lt;p style=&quot;margin:0px;margin-left:4px;&quot;&gt;+ deleteUser&lt;span style=&quot;background-color: initial;&quot;&gt;(String id)&lt;/span&gt;&lt;span style=&quot;background-color: initial;&quot;&gt;&amp;nbsp;: boolean&lt;/span&gt;&lt;br&gt;&lt;/p&gt;&lt;p style=&quot;margin:0px;margin-left:4px;&quot;&gt;&lt;br&gt;&lt;/p&gt;&lt;p style=&quot;margin:0px;margin-left:4px;&quot;&gt;+ loginUser&lt;span style=&quot;background-color: initial;&quot;&gt;(&lt;/span&gt;&lt;span style=&quot;background-color: initial;&quot;&gt;String id, String pw&lt;/span&gt;&lt;span style=&quot;background-color: initial;&quot;&gt;)&lt;/span&gt;&lt;span style=&quot;background-color: initial;&quot;&gt;&amp;nbsp;: boolean&lt;/span&gt;&lt;/p&gt;&lt;p style=&quot;margin:0px;margin-left:4px;&quot;&gt;+ loginAdministrator&lt;span style=&quot;background-color: initial;&quot;&gt;(&lt;/span&gt;&lt;span style=&quot;background-color: initial;&quot;&gt;String id, String pw&lt;/span&gt;&lt;span style=&quot;background-color: initial;&quot;&gt;)&lt;/span&gt;&lt;span style=&quot;background-color: initial;&quot;&gt;&amp;nbsp;: boolean&lt;/span&gt;&lt;/p&gt;&lt;p style=&quot;margin:0px;margin-left:4px;&quot;&gt;+ logout&lt;span style=&quot;background-color: initial;&quot;&gt;(&lt;/span&gt;&lt;span style=&quot;background-color: initial;&quot;&gt;String id&lt;/span&gt;&lt;span style=&quot;background-color: initial;&quot;&gt;)&lt;/span&gt;&lt;span style=&quot;background-color: initial;&quot;&gt;&amp;nbsp;: boolean&lt;/span&gt;&lt;/p&gt;&lt;p style=&quot;margin:0px;margin-left:4px;&quot;&gt;&lt;br&gt;&lt;/p&gt;&lt;p style=&quot;margin: 0px 0px 0px 4px;&quot;&gt;&lt;span style=&quot;color: rgb(0, 51, 255); background-color: initial;&quot;&gt;+ getInstance() : MemberService&lt;/span&gt;&lt;br&gt;&lt;/p&gt;" style="verticalAlign=top;align=left;overflow=fill;fontSize=12;fontFamily=Helvetica;html=1;whiteSpace=wrap;" vertex="1" parent="mxSxCT3K7TG5ama-A4u--1">
          <mxGeometry x="-1920" y="2215" width="300" height="235" as="geometry" />
        </mxCell>
        <mxCell id="XBgEdrSx74rCmCJo9hQQ-109" value="" style="endArrow=open;html=1;rounded=0;entryX=0;entryY=0.5;entryDx=0;entryDy=0;exitX=1;exitY=0.5;exitDx=0;exitDy=0;dashed=1;endFill=0;" edge="1" parent="mxSxCT3K7TG5ama-A4u--1" source="jOQ6RQaYyRkf9lb98vIc-56" target="XBgEdrSx74rCmCJo9hQQ-94">
          <mxGeometry width="50" height="50" relative="1" as="geometry">
            <mxPoint x="-2000" y="2277" as="sourcePoint" />
            <mxPoint x="-1938" y="2253" as="targetPoint" />
          </mxGeometry>
        </mxCell>
        <mxCell id="XBgEdrSx74rCmCJo9hQQ-126" value="use" style="edgeLabel;html=1;align=center;verticalAlign=middle;resizable=0;points=[];" vertex="1" connectable="0" parent="XBgEdrSx74rCmCJo9hQQ-109">
          <mxGeometry x="-0.0444" y="2" relative="1" as="geometry">
            <mxPoint x="-13" y="10" as="offset" />
          </mxGeometry>
        </mxCell>
        <mxCell id="XBgEdrSx74rCmCJo9hQQ-111" value="&lt;p style=&quot;margin:0px;margin-top:4px;text-align:center;&quot;&gt;&lt;b&gt;NotifyController Class&lt;/b&gt;&lt;/p&gt;&lt;hr size=&quot;1&quot;&gt;&lt;p style=&quot;margin:0px;margin-left:4px;&quot;&gt;- service : NotifyService&lt;br&gt;&lt;/p&gt;&lt;hr size=&quot;1&quot;&gt;&lt;p style=&quot;margin:0px;margin-left:4px;&quot;&gt;+ execute(ServiceNo,param) : Map&amp;lt;String,Object&amp;gt;&lt;br&gt;&lt;/p&gt;&lt;p style=&quot;margin:0px;margin-left:4px;&quot;&gt;&lt;br&gt;&lt;/p&gt;" style="verticalAlign=top;align=left;overflow=fill;fontSize=12;fontFamily=Helvetica;html=1;whiteSpace=wrap;shadow=1;" vertex="1" parent="mxSxCT3K7TG5ama-A4u--1">
          <mxGeometry x="-2348.75" y="2790" width="337.5" height="80" as="geometry" />
        </mxCell>
        <mxCell id="XBgEdrSx74rCmCJo9hQQ-112" value="&lt;p style=&quot;margin:0px;margin-top:4px;text-align:center;&quot;&gt;&lt;b&gt;NotifyDao Class&lt;/b&gt;&lt;/p&gt;&lt;hr size=&quot;1&quot;&gt;&lt;p style=&quot;border-color: var(--border-color); margin: 0px 0px 0px 4px;&quot;&gt;- id : String&lt;/p&gt;&lt;p style=&quot;border-color: var(--border-color); margin: 0px 0px 0px 4px;&quot;&gt;- notifyCode : int&lt;/p&gt;&lt;p style=&quot;border-color: var(--border-color); margin: 0px 0px 0px 4px;&quot;&gt;- url : String&lt;/p&gt;&lt;p style=&quot;border-color: var(--border-color); margin: 0px 0px 0px 4px;&quot;&gt;- conn : Connection&lt;/p&gt;&lt;p style=&quot;border-color: var(--border-color); margin: 0px 0px 0px 4px;&quot;&gt;- pstmt : PreparedStatement&lt;/p&gt;&lt;p style=&quot;border-color: var(--border-color); margin: 0px 0px 0px 4px;&quot;&gt;- rs : ResultSet&lt;/p&gt;&lt;p style=&quot;border-color: var(--border-color); margin: 0px 0px 0px 4px;&quot;&gt;&lt;font color=&quot;#0000ff&quot;&gt;- instance : NotifyDao&lt;/font&gt;&lt;/p&gt;&lt;hr size=&quot;1&quot;&gt;&lt;p style=&quot;border-color: var(--border-color); margin: 0px 0px 0px 4px;&quot;&gt;+select() : List&amp;lt;NotifyDto&amp;gt;&lt;br style=&quot;border-color: var(--border-color);&quot;&gt;&lt;/p&gt;&lt;p style=&quot;border-color: var(--border-color); margin: 0px 0px 0px 4px;&quot;&gt;+insert(NotifyDto dto) : String&lt;/p&gt;&lt;p style=&quot;border-color: var(--border-color); margin: 0px 0px 0px 4px;&quot;&gt;+update(NotifyDto dto) : String&lt;/p&gt;&lt;p style=&quot;border-color: var(--border-color); margin: 0px 0px 0px 4px;&quot;&gt;+delete(int notifyCode) : String&lt;/p&gt;&lt;p style=&quot;border-color: var(--border-color); margin: 0px 0px 0px 4px;&quot;&gt;&lt;br&gt;&lt;/p&gt;&lt;p style=&quot;border-color: var(--border-color); margin: 0px 0px 0px 4px;&quot;&gt;&lt;font color=&quot;#0000ff&quot;&gt;+getInstance() : NotifyDao&lt;/font&gt;&lt;/p&gt;" style="verticalAlign=top;align=left;overflow=fill;fontSize=12;fontFamily=Helvetica;html=1;whiteSpace=wrap;" vertex="1" parent="mxSxCT3K7TG5ama-A4u--1">
          <mxGeometry x="-1540" y="2690" width="270" height="240" as="geometry" />
        </mxCell>
        <mxCell id="XBgEdrSx74rCmCJo9hQQ-113" value="&lt;p style=&quot;margin:0px;margin-top:4px;text-align:center;&quot;&gt;&lt;b&gt;NotifyDto&lt;/b&gt;&lt;/p&gt;&lt;hr size=&quot;1&quot;&gt;&lt;p style=&quot;margin: 0px 0px 0px 4px;&quot;&gt;&lt;span style=&quot;background-color: initial;&quot;&gt;notifyCode : int&lt;/span&gt;&lt;br&gt;&lt;/p&gt;&lt;p style=&quot;margin: 0px 0px 0px 4px;&quot;&gt;notifyDate : Date&lt;/p&gt;&lt;p style=&quot;margin: 0px 0px 0px 4px;&quot;&gt;id : String&lt;/p&gt;&lt;hr style=&quot;border-color: var(--border-color);&quot; size=&quot;1&quot;&gt;&lt;p style=&quot;margin:0px;margin-left:4px;&quot;&gt;+ ---&lt;/p&gt;" style="verticalAlign=top;align=left;overflow=fill;fontSize=12;fontFamily=Helvetica;html=1;whiteSpace=wrap;" vertex="1" parent="mxSxCT3K7TG5ama-A4u--1">
          <mxGeometry x="-1540" y="2988.5" width="270" height="111.5" as="geometry" />
        </mxCell>
        <mxCell id="XBgEdrSx74rCmCJo9hQQ-114" value="&lt;p style=&quot;margin:0px;margin-top:4px;text-align:center;&quot;&gt;&lt;b&gt;NotifyService&lt;/b&gt;&lt;/p&gt;&lt;hr size=&quot;1&quot;&gt;&lt;p style=&quot;margin:0px;margin-left:4px;&quot;&gt;- dao : NotifyDao&lt;/p&gt;&lt;p style=&quot;margin:0px;margin-left:4px;&quot;&gt;&lt;font color=&quot;#0000ff&quot;&gt;- instance : NotifyService&lt;/font&gt;&lt;/p&gt;&lt;hr size=&quot;1&quot;&gt;&lt;p style=&quot;margin:0px;margin-left:4px;&quot;&gt;+ getAllNotify(int proCode) : List&amp;lt;NotifyDto&amp;gt;&amp;nbsp;&lt;/p&gt;&lt;p style=&quot;margin:0px;margin-left:4px;&quot;&gt;+ applyNotify(int proCode) : boolean&lt;/p&gt;&lt;p style=&quot;margin:0px;margin-left:4px;&quot;&gt;+ updateNotify(int proCode) : boolean&lt;/p&gt;&lt;p style=&quot;margin:0px;margin-left:4px;&quot;&gt;+ deleteNotify(int proCode) : boolean&amp;nbsp;&lt;/p&gt;&lt;p style=&quot;margin:0px;margin-left:4px;&quot;&gt;&lt;br&gt;&lt;/p&gt;&lt;p style=&quot;margin: 0px 0px 0px 4px;&quot;&gt;&lt;span style=&quot;color: rgb(0, 51, 255); background-color: initial;&quot;&gt;+ getInstance() : NotifyService&lt;/span&gt;&lt;br&gt;&lt;/p&gt;" style="verticalAlign=top;align=left;overflow=fill;fontSize=12;fontFamily=Helvetica;html=1;whiteSpace=wrap;" vertex="1" parent="mxSxCT3K7TG5ama-A4u--1">
          <mxGeometry x="-1920" y="2722.5" width="300" height="175" as="geometry" />
        </mxCell>
        <mxCell id="XBgEdrSx74rCmCJo9hQQ-117" value="예약&lt;br&gt;테이블" style="shape=cylinder3;whiteSpace=wrap;html=1;boundedLbl=1;backgroundOutline=1;size=15;" vertex="1" parent="mxSxCT3K7TG5ama-A4u--1">
          <mxGeometry x="-1040" y="2775" width="50" height="70" as="geometry" />
        </mxCell>
        <mxCell id="XBgEdrSx74rCmCJo9hQQ-122" value="" style="endArrow=none;html=1;rounded=0;entryX=0;entryY=0.5;entryDx=0;entryDy=0;exitX=1;exitY=0;exitDx=0;exitDy=0;startArrow=diamondThin;startFill=1;endSize=6;strokeWidth=1;targetPerimeterSpacing=0;startSize=12;" edge="1" parent="mxSxCT3K7TG5ama-A4u--1" source="jOQ6RQaYyRkf9lb98vIc-21" target="jOQ6RQaYyRkf9lb98vIc-56">
          <mxGeometry width="50" height="50" relative="1" as="geometry">
            <mxPoint x="-2480" y="2481.25" as="sourcePoint" />
            <mxPoint x="-2400" y="2350" as="targetPoint" />
          </mxGeometry>
        </mxCell>
        <mxCell id="XBgEdrSx74rCmCJo9hQQ-123" value="" style="rounded=0;whiteSpace=wrap;html=1;fillColor=#0050ef;strokeColor=#001DBC;fontColor=#ffffff;" vertex="1" parent="mxSxCT3K7TG5ama-A4u--1">
          <mxGeometry x="-1940" y="2145" width="5" height="25" as="geometry" />
        </mxCell>
        <mxCell id="XBgEdrSx74rCmCJo9hQQ-128" value="" style="endArrow=open;html=1;rounded=0;entryX=0.5;entryY=0;entryDx=0;entryDy=0;startArrow=none;startFill=0;startSize=12;exitX=0.5;exitY=1;exitDx=0;exitDy=0;endFill=0;dashed=1;" edge="1" parent="mxSxCT3K7TG5ama-A4u--1" source="XBgEdrSx74rCmCJo9hQQ-95" target="XBgEdrSx74rCmCJo9hQQ-96">
          <mxGeometry width="50" height="50" relative="1" as="geometry">
            <mxPoint x="-1460" y="2450" as="sourcePoint" />
            <mxPoint x="-1380" y="2450" as="targetPoint" />
          </mxGeometry>
        </mxCell>
        <mxCell id="XBgEdrSx74rCmCJo9hQQ-129" value="use" style="edgeLabel;html=1;align=center;verticalAlign=middle;resizable=0;points=[];" vertex="1" connectable="0" parent="XBgEdrSx74rCmCJo9hQQ-128">
          <mxGeometry x="-0.1668" y="-2" relative="1" as="geometry">
            <mxPoint x="2" y="3" as="offset" />
          </mxGeometry>
        </mxCell>
        <mxCell id="XBgEdrSx74rCmCJo9hQQ-139" value="&lt;p style=&quot;margin:0px;margin-top:4px;text-align:center;&quot;&gt;&lt;b&gt;OrderController Class&lt;/b&gt;&lt;/p&gt;&lt;hr size=&quot;1&quot;&gt;&lt;p style=&quot;margin:0px;margin-left:4px;&quot;&gt;- service : OrderService&lt;/p&gt;&lt;hr size=&quot;1&quot;&gt;&lt;p style=&quot;margin:0px;margin-left:4px;&quot;&gt;+ execute(&lt;span style=&quot;background-color: initial;&quot;&gt;ServiceNo,param)&lt;/span&gt;&lt;span style=&quot;background-color: initial;&quot;&gt;&amp;nbsp;:&amp;nbsp;&lt;/span&gt;&lt;span style=&quot;background-color: initial;&quot;&gt;Map&amp;lt;String,Object&amp;gt;&lt;/span&gt;&lt;/p&gt;" style="verticalAlign=top;align=left;overflow=fill;fontSize=12;fontFamily=Helvetica;html=1;whiteSpace=wrap;shadow=1;" vertex="1" parent="mxSxCT3K7TG5ama-A4u--1">
          <mxGeometry x="-2348.75" y="3700" width="338.75" height="80" as="geometry" />
        </mxCell>
        <mxCell id="XBgEdrSx74rCmCJo9hQQ-148" value="&lt;p style=&quot;margin:0px;margin-top:4px;text-align:center;&quot;&gt;&lt;b&gt;OrderDto&lt;/b&gt;&lt;/p&gt;&lt;hr size=&quot;1&quot;&gt;&lt;p style=&quot;margin:0px;margin-left:4px;&quot;&gt;orderCode : int&lt;/p&gt;&lt;p style=&quot;margin:0px;margin-left:4px;&quot;&gt;proCode : int&lt;/p&gt;&lt;p style=&quot;margin:0px;margin-left:4px;&quot;&gt;id : String&lt;/p&gt;&lt;p style=&quot;margin:0px;margin-left:4px;&quot;&gt;totalProductAmount : int&lt;/p&gt;&lt;p style=&quot;margin: 0px 0px 0px 4px;&quot;&gt;ProductAmount : int&lt;/p&gt;&lt;p style=&quot;margin: 0px 0px 0px 4px;&quot;&gt;orderCnt : int&lt;/p&gt;&lt;p style=&quot;margin: 0px 0px 0px 4px;&quot;&gt;orderDate : Date&lt;/p&gt;&lt;p style=&quot;margin: 0px 0px 0px 4px;&quot;&gt;orderState : String&lt;/p&gt;&lt;p style=&quot;margin: 0px 0px 0px 4px;&quot;&gt;delivery : int&lt;/p&gt;&lt;p style=&quot;margin:0px;margin-left:4px;&quot;&gt;&lt;br&gt;&lt;/p&gt;" style="verticalAlign=top;align=left;overflow=fill;fontSize=12;fontFamily=Helvetica;html=1;whiteSpace=wrap;shadow=1;" vertex="1" parent="mxSxCT3K7TG5ama-A4u--1">
          <mxGeometry x="-1540" y="4070" width="290" height="180" as="geometry" />
        </mxCell>
        <mxCell id="XBgEdrSx74rCmCJo9hQQ-149" value="&lt;p style=&quot;margin:0px;margin-top:4px;text-align:center;&quot;&gt;&lt;b&gt;OrderDao Class&lt;/b&gt;&lt;/p&gt;&lt;hr size=&quot;1&quot;&gt;&lt;p style=&quot;margin:0px;margin-left:4px;&quot;&gt;&lt;span style=&quot;background-color: initial;&quot;&gt;orderCode : int&lt;/span&gt;&lt;/p&gt;&lt;p style=&quot;margin: 0px 0px 0px 4px;&quot;&gt;proCode : int&lt;/p&gt;&lt;p style=&quot;margin: 0px 0px 0px 4px;&quot;&gt;id : String&lt;/p&gt;&lt;p style=&quot;margin: 0px 0px 0px 4px;&quot;&gt;totalProductCost : int&lt;/p&gt;&lt;p style=&quot;margin: 0px 0px 0px 4px;&quot;&gt;ProductCost : int&lt;/p&gt;&lt;p style=&quot;margin: 0px 0px 0px 4px;&quot;&gt;orderCnt : int&lt;/p&gt;&lt;p style=&quot;margin: 0px 0px 0px 4px;&quot;&gt;orderDate : Date&lt;/p&gt;&lt;p style=&quot;margin: 0px 0px 0px 4px;&quot;&gt;orderState : String&lt;/p&gt;&lt;p style=&quot;margin: 0px 0px 0px 4px;&quot;&gt;delivery : int&lt;/p&gt;&lt;p style=&quot;margin: 0px 0px 0px 4px;&quot;&gt;&lt;font color=&quot;#0000ff&quot;&gt;instance :&amp;nbsp;&lt;span style=&quot;text-wrap: nowrap;&quot;&gt;OrderDao&lt;/span&gt;&lt;/font&gt;&lt;/p&gt;&lt;hr size=&quot;1&quot;&gt;&lt;p style=&quot;margin: 0px 0px 0px 4px;&quot;&gt;&lt;span style=&quot;background-color: initial;&quot;&gt;+select()&amp;nbsp;&lt;/span&gt;&lt;span style=&quot;background-color: initial;&quot;&gt;: List&amp;lt;&lt;/span&gt;&lt;span style=&quot;background-color: initial; text-wrap: nowrap; text-align: center;&quot;&gt;OrderDto&lt;/span&gt;&lt;span style=&quot;background-color: initial;&quot;&gt;&amp;gt;&lt;/span&gt;&lt;/p&gt;&lt;p style=&quot;margin: 0px 0px 0px 4px;&quot;&gt;&lt;span style=&quot;background-color: initial;&quot;&gt;+select(int orderCode): List&amp;lt;&lt;/span&gt;&lt;span style=&quot;text-align: center; text-wrap: nowrap;&quot;&gt;OrderDto&lt;/span&gt;&lt;span style=&quot;background-color: initial;&quot;&gt;&amp;gt;&lt;/span&gt;&lt;/p&gt;&lt;p style=&quot;margin: 0px 0px 0px 4px;&quot;&gt;&lt;span style=&quot;background-color: initial;&quot;&gt;+insert(&lt;/span&gt;&lt;span style=&quot;background-color: initial; text-wrap: nowrap; text-align: center;&quot;&gt;OrderDto&amp;nbsp;&lt;/span&gt;&lt;span style=&quot;background-color: initial;&quot;&gt;dto)&lt;/span&gt;&lt;span style=&quot;background-color: initial;&quot;&gt;&amp;nbsp;: String&lt;/span&gt;&lt;/p&gt;&lt;p style=&quot;margin: 0px 0px 0px 4px;&quot;&gt;&lt;span style=&quot;background-color: initial;&quot;&gt;+update(&lt;/span&gt;&lt;span style=&quot;background-color: initial; text-wrap: nowrap; text-align: center;&quot;&gt;OrderDto&amp;nbsp;&lt;/span&gt;&lt;span style=&quot;background-color: initial;&quot;&gt;dto)&lt;/span&gt;&lt;span style=&quot;background-color: initial;&quot;&gt;&amp;nbsp;: String&lt;/span&gt;&lt;/p&gt;&lt;p style=&quot;margin: 0px 0px 0px 4px;&quot;&gt;&lt;span style=&quot;background-color: initial;&quot;&gt;+delete(int orderCode)&lt;/span&gt;&lt;span style=&quot;background-color: initial;&quot;&gt;&amp;nbsp;: String&lt;/span&gt;&lt;/p&gt;&lt;p style=&quot;margin: 0px 0px 0px 4px;&quot;&gt;&lt;span style=&quot;background-color: initial;&quot;&gt;&lt;br&gt;&lt;/span&gt;&lt;/p&gt;&lt;p style=&quot;margin: 0px 0px 0px 4px;&quot;&gt;&lt;font color=&quot;#0000ff&quot;&gt;+ getInstance() : OrderDao&lt;/font&gt;&lt;/p&gt;" style="verticalAlign=top;align=left;overflow=fill;fontSize=12;fontFamily=Helvetica;html=1;whiteSpace=wrap;shadow=1;" vertex="1" parent="mxSxCT3K7TG5ama-A4u--1">
          <mxGeometry x="-1540" y="3700" width="290" height="295" as="geometry" />
        </mxCell>
        <mxCell id="XBgEdrSx74rCmCJo9hQQ-150" value="주문&lt;br&gt;테이블" style="shape=cylinder3;whiteSpace=wrap;html=1;boundedLbl=1;backgroundOutline=1;size=15;" vertex="1" parent="mxSxCT3K7TG5ama-A4u--1">
          <mxGeometry x="-1040" y="3812.5" width="50" height="70" as="geometry" />
        </mxCell>
        <mxCell id="XBgEdrSx74rCmCJo9hQQ-152" value="&lt;p style=&quot;margin:0px;margin-top:4px;text-align:center;&quot;&gt;&lt;b&gt;&lt;span style=&quot;text-wrap: nowrap;&quot;&gt;Order&lt;/span&gt;&amp;nbsp;Service&lt;/b&gt;&lt;/p&gt;&lt;hr size=&quot;1&quot;&gt;&lt;p style=&quot;margin: 0px 0px 0px 4px;&quot;&gt;&lt;span style=&quot;text-align: center; text-wrap: nowrap;&quot;&gt;dao : OrderDao&lt;/span&gt;&lt;br&gt;&lt;/p&gt;&lt;p style=&quot;margin: 0px 0px 0px 4px;&quot;&gt;&lt;font color=&quot;#0000ff&quot;&gt;instance : &lt;span style=&quot;text-wrap: nowrap;&quot;&gt;Order&amp;nbsp;&lt;/span&gt;&lt;span style=&quot;background-color: initial; text-align: center;&quot;&gt;Service&lt;/span&gt;&lt;/font&gt;&lt;/p&gt;&lt;hr size=&quot;1&quot;&gt;&lt;p style=&quot;margin:0px;margin-left:4px;&quot;&gt;+&amp;nbsp;&lt;span style=&quot;background-color: initial;&quot;&gt;getAllOrder(OrderDto dto) : List&amp;lt;OrderDto&amp;gt;&lt;/span&gt;&lt;/p&gt;&lt;p style=&quot;margin:0px;margin-left:4px;&quot;&gt;&lt;span style=&quot;background-color: initial;&quot;&gt;&lt;br&gt;&lt;/span&gt;&lt;/p&gt;&lt;p style=&quot;margin:0px;margin-left:4px;&quot;&gt;&lt;font color=&quot;#0000ff&quot;&gt;+ getInstance() : OrderService&lt;/font&gt;&lt;/p&gt;" style="verticalAlign=top;align=left;overflow=fill;fontSize=12;fontFamily=Helvetica;html=1;whiteSpace=wrap;shadow=1;" vertex="1" parent="mxSxCT3K7TG5ama-A4u--1">
          <mxGeometry x="-1920" y="3700" width="290" height="140" as="geometry" />
        </mxCell>
        <mxCell id="XBgEdrSx74rCmCJo9hQQ-164" value="" style="endArrow=open;html=1;rounded=0;entryX=0;entryY=0.5;entryDx=0;entryDy=0;exitX=1;exitY=0.5;exitDx=0;exitDy=0;dashed=1;endFill=0;" edge="1" parent="mxSxCT3K7TG5ama-A4u--1" source="XBgEdrSx74rCmCJo9hQQ-111" target="XBgEdrSx74rCmCJo9hQQ-114">
          <mxGeometry width="50" height="50" relative="1" as="geometry">
            <mxPoint x="-1993.5" y="2780" as="sourcePoint" />
            <mxPoint x="-1906.5" y="2705" as="targetPoint" />
          </mxGeometry>
        </mxCell>
        <mxCell id="XBgEdrSx74rCmCJo9hQQ-165" value="use" style="edgeLabel;html=1;align=center;verticalAlign=middle;resizable=0;points=[];" vertex="1" connectable="0" parent="XBgEdrSx74rCmCJo9hQQ-164">
          <mxGeometry x="-0.0444" y="2" relative="1" as="geometry">
            <mxPoint x="-6" as="offset" />
          </mxGeometry>
        </mxCell>
        <mxCell id="XBgEdrSx74rCmCJo9hQQ-170" value="" style="endArrow=open;html=1;rounded=0;entryX=0.5;entryY=0;entryDx=0;entryDy=0;exitX=0.5;exitY=1;exitDx=0;exitDy=0;dashed=1;endFill=0;" edge="1" parent="mxSxCT3K7TG5ama-A4u--1" source="XBgEdrSx74rCmCJo9hQQ-112" target="XBgEdrSx74rCmCJo9hQQ-113">
          <mxGeometry width="50" height="50" relative="1" as="geometry">
            <mxPoint x="-1470" y="2960" as="sourcePoint" />
            <mxPoint x="-1389" y="2960" as="targetPoint" />
          </mxGeometry>
        </mxCell>
        <mxCell id="XBgEdrSx74rCmCJo9hQQ-171" value="use" style="edgeLabel;html=1;align=center;verticalAlign=middle;resizable=0;points=[];" vertex="1" connectable="0" parent="XBgEdrSx74rCmCJo9hQQ-170">
          <mxGeometry x="-0.0444" y="2" relative="1" as="geometry">
            <mxPoint x="-2" as="offset" />
          </mxGeometry>
        </mxCell>
        <mxCell id="XBgEdrSx74rCmCJo9hQQ-175" value="" style="endArrow=open;html=1;rounded=0;entryX=0;entryY=0.5;entryDx=0;entryDy=0;exitX=1;exitY=0.5;exitDx=0;exitDy=0;dashed=1;endFill=0;" edge="1" parent="mxSxCT3K7TG5ama-A4u--1" source="XBgEdrSx74rCmCJo9hQQ-114" target="XBgEdrSx74rCmCJo9hQQ-112">
          <mxGeometry width="50" height="50" relative="1" as="geometry">
            <mxPoint x="-1631" y="2820" as="sourcePoint" />
            <mxPoint x="-1540" y="2800" as="targetPoint" />
          </mxGeometry>
        </mxCell>
        <mxCell id="XBgEdrSx74rCmCJo9hQQ-176" value="use" style="edgeLabel;html=1;align=center;verticalAlign=middle;resizable=0;points=[];" vertex="1" connectable="0" parent="XBgEdrSx74rCmCJo9hQQ-175">
          <mxGeometry x="-0.0444" y="2" relative="1" as="geometry">
            <mxPoint x="-6" as="offset" />
          </mxGeometry>
        </mxCell>
        <mxCell id="XBgEdrSx74rCmCJo9hQQ-177" value="&lt;p style=&quot;margin:0px;margin-top:4px;text-align:center;&quot;&gt;&lt;b&gt;&lt;span style=&quot;text-wrap: nowrap; background-color: initial;&quot;&gt;Payment&lt;/span&gt;Controller Class&lt;/b&gt;&lt;/p&gt;&lt;hr size=&quot;1&quot;&gt;&lt;p style=&quot;margin:0px;margin-left:4px;&quot;&gt;- service : PaymentService&lt;/p&gt;&lt;hr size=&quot;1&quot;&gt;&lt;p style=&quot;margin:0px;margin-left:4px;&quot;&gt;+ execute&lt;span style=&quot;background-color: initial;&quot;&gt;(ServiceNo,param)&lt;/span&gt;&lt;span style=&quot;background-color: initial;&quot;&gt;&amp;nbsp;:&amp;nbsp;&lt;/span&gt;&lt;span style=&quot;background-color: initial;&quot;&gt;Map&amp;lt;String,Object&amp;gt;&lt;/span&gt;&lt;/p&gt;&lt;p style=&quot;margin:0px;margin-left:4px;&quot;&gt;&lt;br&gt;&lt;/p&gt;&lt;p style=&quot;margin:0px;margin-left:4px;&quot;&gt;&lt;br&gt;&lt;/p&gt;" style="verticalAlign=top;align=left;overflow=fill;fontSize=12;fontFamily=Helvetica;html=1;whiteSpace=wrap;shadow=1;" vertex="1" parent="mxSxCT3K7TG5ama-A4u--1">
          <mxGeometry x="-2348.75" y="3200" width="337.5" height="80" as="geometry" />
        </mxCell>
        <mxCell id="XBgEdrSx74rCmCJo9hQQ-178" value="" style="endArrow=none;html=1;rounded=0;entryX=-0.009;entryY=0.406;entryDx=0;entryDy=0;exitX=1;exitY=0.75;exitDx=0;exitDy=0;startArrow=diamondThin;startFill=1;startSize=12;entryPerimeter=0;" edge="1" parent="mxSxCT3K7TG5ama-A4u--1" source="jOQ6RQaYyRkf9lb98vIc-21" target="XBgEdrSx74rCmCJo9hQQ-177">
          <mxGeometry width="50" height="50" relative="1" as="geometry">
            <mxPoint x="-2452" y="3029" as="sourcePoint" />
            <mxPoint x="-2339" y="2840" as="targetPoint" />
          </mxGeometry>
        </mxCell>
        <mxCell id="XBgEdrSx74rCmCJo9hQQ-179" value="&lt;p style=&quot;margin:0px;margin-top:4px;text-align:center;&quot;&gt;&lt;b&gt;&lt;span style=&quot;text-wrap: nowrap; background-color: initial;&quot;&gt;Payment&lt;/span&gt;&amp;nbsp;Service&lt;/b&gt;&lt;/p&gt;&lt;hr size=&quot;1&quot;&gt;&lt;p style=&quot;margin: 0px 0px 0px 4px;&quot;&gt;&lt;span style=&quot;text-align: center; text-wrap: nowrap;&quot;&gt;dao : PaymentDao&lt;/span&gt;&lt;br&gt;&lt;/p&gt;&lt;p style=&quot;margin: 0px 0px 0px 4px;&quot;&gt;&lt;font color=&quot;#0000ff&quot;&gt;instance :&amp;nbsp;&lt;span style=&quot;background-color: initial; text-wrap: nowrap; text-align: center;&quot;&gt;Payment&lt;/span&gt;&lt;span style=&quot;background-color: initial; text-align: center;&quot;&gt;Service&lt;/span&gt;&lt;/font&gt;&lt;/p&gt;&lt;hr size=&quot;1&quot;&gt;&lt;p style=&quot;margin:0px;margin-left:4px;&quot;&gt;+ reqPayment&lt;span style=&quot;background-color: initial;&quot;&gt;(int&amp;nbsp;&lt;/span&gt;&lt;span style=&quot;background-color: initial;&quot;&gt;orderCode&lt;/span&gt;&lt;span style=&quot;background-color: initial;&quot;&gt;, String id, int&amp;nbsp;&lt;/span&gt;&lt;span style=&quot;background-color: initial;&quot;&gt;proCode&lt;/span&gt;&lt;span style=&quot;background-color: initial;&quot;&gt;)&amp;nbsp;&lt;/span&gt;&lt;/p&gt;&lt;p style=&quot;margin:0px;margin-left:4px;&quot;&gt;&lt;span style=&quot;background-color: initial;&quot;&gt;&amp;nbsp; &amp;nbsp;: boolean&lt;/span&gt;&lt;/p&gt;&lt;p style=&quot;margin:0px;margin-left:4px;&quot;&gt;&lt;span style=&quot;background-color: initial;&quot;&gt;&lt;br&gt;&lt;/span&gt;&lt;/p&gt;&lt;p style=&quot;margin: 0px 0px 0px 4px;&quot;&gt;&lt;font color=&quot;#0000ff&quot;&gt;+ getInstance() :&amp;nbsp;&lt;span style=&quot;background-color: initial; text-wrap: nowrap; text-align: center;&quot;&gt;Payment&lt;/span&gt;&lt;span style=&quot;background-color: initial; text-align: center;&quot;&gt;Service&lt;/span&gt;&lt;/font&gt;&lt;/p&gt;&lt;div&gt;&lt;span style=&quot;background-color: initial; text-align: center;&quot;&gt;&lt;br&gt;&lt;/span&gt;&lt;/div&gt;&lt;p style=&quot;margin:0px;margin-left:4px;&quot;&gt;&lt;br&gt;&lt;/p&gt;" style="verticalAlign=top;align=left;overflow=fill;fontSize=12;fontFamily=Helvetica;html=1;whiteSpace=wrap;shadow=1;" vertex="1" parent="mxSxCT3K7TG5ama-A4u--1">
          <mxGeometry x="-1920" y="3200" width="300" height="150" as="geometry" />
        </mxCell>
        <mxCell id="XBgEdrSx74rCmCJo9hQQ-180" value="" style="endArrow=open;html=1;rounded=0;entryX=0;entryY=0.5;entryDx=0;entryDy=0;exitX=1;exitY=0.5;exitDx=0;exitDy=0;dashed=1;endFill=0;" edge="1" parent="mxSxCT3K7TG5ama-A4u--1" source="XBgEdrSx74rCmCJo9hQQ-177" target="XBgEdrSx74rCmCJo9hQQ-179">
          <mxGeometry width="50" height="50" relative="1" as="geometry">
            <mxPoint x="-2011.25" y="3252.5" as="sourcePoint" />
            <mxPoint x="-1920.25" y="3232.5" as="targetPoint" />
          </mxGeometry>
        </mxCell>
        <mxCell id="XBgEdrSx74rCmCJo9hQQ-181" value="use" style="edgeLabel;html=1;align=center;verticalAlign=middle;resizable=0;points=[];" vertex="1" connectable="0" parent="XBgEdrSx74rCmCJo9hQQ-180">
          <mxGeometry x="-0.0444" y="2" relative="1" as="geometry">
            <mxPoint x="-6" as="offset" />
          </mxGeometry>
        </mxCell>
        <mxCell id="XBgEdrSx74rCmCJo9hQQ-182" value="&lt;p style=&quot;margin: 4px 0px 0px; text-align: center;&quot;&gt;&lt;b&gt;&lt;span style=&quot;text-wrap: nowrap; background-color: initial;&quot;&gt;Payment&lt;/span&gt;Dao Class&lt;/b&gt;&lt;/p&gt;&lt;hr size=&quot;1&quot;&gt;&lt;p style=&quot;margin: 0px 0px 0px 4px;&quot;&gt;orderCode : int&lt;/p&gt;&lt;p style=&quot;margin: 0px 0px 0px 4px;&quot;&gt;id : String&lt;/p&gt;&lt;p style=&quot;margin: 0px 0px 0px 4px;&quot;&gt;proCode : int&lt;/p&gt;&lt;p style=&quot;margin: 0px 0px 0px 4px;&quot;&gt;paymentStatus : String&lt;/p&gt;&lt;p style=&quot;margin: 0px 0px 0px 4px;&quot;&gt;paymentMethod : String&lt;/p&gt;&lt;p style=&quot;margin: 0px 0px 0px 4px;&quot;&gt;&lt;font color=&quot;#0000ff&quot;&gt;instance :&amp;nbsp;&lt;span style=&quot;text-wrap: nowrap; background-color: initial; text-align: center;&quot;&gt;PaymentDao&lt;/span&gt;&lt;br&gt;&lt;/font&gt;&lt;/p&gt;&lt;hr size=&quot;1&quot;&gt;&lt;p style=&quot;margin: 0px 0px 0px 4px;&quot;&gt;&lt;span style=&quot;background-color: initial;&quot;&gt;+select()&amp;nbsp;&lt;/span&gt;&lt;span style=&quot;background-color: initial;&quot;&gt;: List&amp;lt;&lt;/span&gt;&lt;span style=&quot;background-color: initial; text-wrap: nowrap; text-align: center;&quot;&gt;PaymentDto&lt;/span&gt;&lt;span style=&quot;background-color: initial;&quot;&gt;&amp;gt;&lt;/span&gt;&lt;/p&gt;&lt;p style=&quot;margin: 0px 0px 0px 4px;&quot;&gt;&lt;span style=&quot;background-color: initial;&quot;&gt;+select(int orderCode, String id)&lt;/span&gt;&lt;span style=&quot;background-color: initial;&quot;&gt;&amp;nbsp;: List&amp;lt;&lt;/span&gt;&lt;span style=&quot;background-color: initial; text-wrap: nowrap; text-align: center;&quot;&gt;PaymentDto&lt;/span&gt;&lt;span style=&quot;background-color: initial;&quot;&gt;&amp;gt;&lt;/span&gt;&lt;/p&gt;&lt;p style=&quot;margin: 0px 0px 0px 4px;&quot;&gt;&lt;span style=&quot;background-color: initial;&quot;&gt;+insert(&lt;/span&gt;&lt;span style=&quot;background-color: initial; text-wrap: nowrap; text-align: center;&quot;&gt;PaymentDto&lt;/span&gt;&lt;span style=&quot;background-color: initial;&quot;&gt;dto)&lt;/span&gt;&lt;span style=&quot;background-color: initial;&quot;&gt;&amp;nbsp;: String&lt;/span&gt;&lt;/p&gt;&lt;p style=&quot;margin: 0px 0px 0px 4px;&quot;&gt;&lt;span style=&quot;background-color: initial;&quot;&gt;+update(&lt;/span&gt;&lt;span style=&quot;background-color: initial; text-wrap: nowrap; text-align: center;&quot;&gt;PaymentDto&lt;/span&gt;&lt;span style=&quot;background-color: initial;&quot;&gt;dto)&lt;/span&gt;&lt;span style=&quot;background-color: initial;&quot;&gt;&amp;nbsp;: String&lt;/span&gt;&lt;/p&gt;&lt;p style=&quot;margin: 0px 0px 0px 4px;&quot;&gt;&lt;span style=&quot;background-color: initial;&quot;&gt;+delete(int orderCode, String id)&lt;/span&gt;&lt;span style=&quot;background-color: initial;&quot;&gt;&amp;nbsp;: String&lt;/span&gt;&lt;/p&gt;&lt;p style=&quot;margin: 0px 0px 0px 4px;&quot;&gt;&lt;span style=&quot;background-color: initial;&quot;&gt;&lt;br&gt;&lt;/span&gt;&lt;/p&gt;&lt;p style=&quot;margin: 0px 0px 0px 4px;&quot;&gt;&lt;font color=&quot;#0000ff&quot;&gt;+ getInstance() :&amp;nbsp;&lt;span style=&quot;background-color: initial; text-wrap: nowrap; text-align: center;&quot;&gt;PaymentDao&lt;/span&gt;&lt;/font&gt;&lt;/p&gt;&lt;div&gt;&lt;span style=&quot;background-color: initial; text-align: center;&quot;&gt;&lt;br&gt;&lt;/span&gt;&lt;/div&gt;" style="verticalAlign=top;align=left;overflow=fill;fontSize=12;fontFamily=Helvetica;html=1;whiteSpace=wrap;shadow=1;" vertex="1" parent="mxSxCT3K7TG5ama-A4u--1">
          <mxGeometry x="-1540" y="3155" width="290" height="240" as="geometry" />
        </mxCell>
        <mxCell id="XBgEdrSx74rCmCJo9hQQ-133" value="&lt;font color=&quot;#000000&quot;&gt;Model&lt;/font&gt;" style="shape=umlFrame;whiteSpace=wrap;html=1;fontColor=#FF0000;" vertex="1" parent="mxSxCT3K7TG5ama-A4u--1">
          <mxGeometry x="-1931.25" y="2180" width="820" height="470" as="geometry" />
        </mxCell>
        <mxCell id="XBgEdrSx74rCmCJo9hQQ-183" value="결제&lt;br&gt;테이블" style="shape=cylinder3;whiteSpace=wrap;html=1;boundedLbl=1;backgroundOutline=1;size=15;" vertex="1" parent="mxSxCT3K7TG5ama-A4u--1">
          <mxGeometry x="-1040" y="3240" width="50" height="70" as="geometry" />
        </mxCell>
        <mxCell id="XBgEdrSx74rCmCJo9hQQ-184" value="&lt;p style=&quot;margin:0px;margin-top:4px;text-align:center;&quot;&gt;&lt;b&gt;PaymentDto&lt;/b&gt;&lt;/p&gt;&lt;hr size=&quot;1&quot;&gt;&lt;p style=&quot;margin:0px;margin-left:4px;&quot;&gt;&amp;nbsp;&lt;span style=&quot;background-color: initial;&quot;&gt;orderCode : int&lt;/span&gt;&lt;/p&gt;&lt;p style=&quot;margin:0px;margin-left:4px;&quot;&gt;&amp;nbsp;id : String&lt;/p&gt;&lt;p style=&quot;margin:0px;margin-left:4px;&quot;&gt;&amp;nbsp;proCode : int&lt;/p&gt;&lt;p style=&quot;margin:0px;margin-left:4px;&quot;&gt;&amp;nbsp;paymentStatus : String&lt;/p&gt;&lt;p style=&quot;margin:0px;margin-left:4px;&quot;&gt;&amp;nbsp;paymentMethod : String&lt;br&gt;&lt;/p&gt;&lt;p style=&quot;margin:0px;margin-left:4px;&quot;&gt;&lt;br&gt;&lt;/p&gt;&lt;p style=&quot;margin:0px;margin-left:4px;&quot;&gt;&lt;br&gt;&lt;/p&gt;&lt;p style=&quot;margin:0px;margin-left:4px;&quot;&gt;&lt;br&gt;&lt;/p&gt;" style="verticalAlign=top;align=left;overflow=fill;fontSize=12;fontFamily=Helvetica;html=1;whiteSpace=wrap;shadow=1;" vertex="1" parent="mxSxCT3K7TG5ama-A4u--1">
          <mxGeometry x="-1540" y="3480" width="290" height="140" as="geometry" />
        </mxCell>
        <mxCell id="XBgEdrSx74rCmCJo9hQQ-185" value="" style="endArrow=open;html=1;rounded=0;entryX=0;entryY=0.5;entryDx=0;entryDy=0;exitX=1;exitY=0.5;exitDx=0;exitDy=0;dashed=1;endFill=0;" edge="1" parent="mxSxCT3K7TG5ama-A4u--1" source="XBgEdrSx74rCmCJo9hQQ-179" target="XBgEdrSx74rCmCJo9hQQ-182">
          <mxGeometry width="50" height="50" relative="1" as="geometry">
            <mxPoint x="-1620" y="3285" as="sourcePoint" />
            <mxPoint x="-1529" y="3317" as="targetPoint" />
          </mxGeometry>
        </mxCell>
        <mxCell id="XBgEdrSx74rCmCJo9hQQ-186" value="use" style="edgeLabel;html=1;align=center;verticalAlign=middle;resizable=0;points=[];" vertex="1" connectable="0" parent="XBgEdrSx74rCmCJo9hQQ-185">
          <mxGeometry x="-0.0444" y="2" relative="1" as="geometry">
            <mxPoint x="-6" as="offset" />
          </mxGeometry>
        </mxCell>
        <mxCell id="XBgEdrSx74rCmCJo9hQQ-187" value="" style="endArrow=none;html=1;rounded=0;entryX=0;entryY=0.5;entryDx=0;entryDy=0;entryPerimeter=0;exitX=1;exitY=0.5;exitDx=0;exitDy=0;" edge="1" parent="mxSxCT3K7TG5ama-A4u--1" source="XBgEdrSx74rCmCJo9hQQ-182" target="XBgEdrSx74rCmCJo9hQQ-183">
          <mxGeometry width="50" height="50" relative="1" as="geometry">
            <mxPoint x="-1450" y="3220" as="sourcePoint" />
            <mxPoint x="-1400" y="3170" as="targetPoint" />
          </mxGeometry>
        </mxCell>
        <mxCell id="XBgEdrSx74rCmCJo9hQQ-188" value="" style="endArrow=open;html=1;rounded=0;entryX=0.5;entryY=0;entryDx=0;entryDy=0;exitX=0.5;exitY=1;exitDx=0;exitDy=0;dashed=1;endFill=0;" edge="1" parent="mxSxCT3K7TG5ama-A4u--1" source="XBgEdrSx74rCmCJo9hQQ-182" target="XBgEdrSx74rCmCJo9hQQ-184">
          <mxGeometry width="50" height="50" relative="1" as="geometry">
            <mxPoint x="-1610" y="3285" as="sourcePoint" />
            <mxPoint x="-1530" y="3285" as="targetPoint" />
          </mxGeometry>
        </mxCell>
        <mxCell id="XBgEdrSx74rCmCJo9hQQ-189" value="use" style="edgeLabel;html=1;align=center;verticalAlign=middle;resizable=0;points=[];" vertex="1" connectable="0" parent="XBgEdrSx74rCmCJo9hQQ-188">
          <mxGeometry x="-0.0444" y="2" relative="1" as="geometry">
            <mxPoint x="-2" y="-6" as="offset" />
          </mxGeometry>
        </mxCell>
        <mxCell id="XBgEdrSx74rCmCJo9hQQ-190" value="" style="endArrow=none;html=1;rounded=0;entryX=0;entryY=0.5;entryDx=0;entryDy=0;exitX=1;exitY=1;exitDx=0;exitDy=0;startArrow=diamondThin;startFill=1;startSize=12;" edge="1" parent="mxSxCT3K7TG5ama-A4u--1" source="jOQ6RQaYyRkf9lb98vIc-21" target="XBgEdrSx74rCmCJo9hQQ-139">
          <mxGeometry width="50" height="50" relative="1" as="geometry">
            <mxPoint x="-2452" y="3089" as="sourcePoint" />
            <mxPoint x="-2342" y="3242" as="targetPoint" />
          </mxGeometry>
        </mxCell>
        <mxCell id="XBgEdrSx74rCmCJo9hQQ-191" value="" style="endArrow=open;html=1;rounded=0;entryX=0;entryY=0.5;entryDx=0;entryDy=0;exitX=1;exitY=0.5;exitDx=0;exitDy=0;dashed=1;endFill=0;" edge="1" parent="mxSxCT3K7TG5ama-A4u--1" source="XBgEdrSx74rCmCJo9hQQ-139" target="XBgEdrSx74rCmCJo9hQQ-152">
          <mxGeometry width="50" height="50" relative="1" as="geometry">
            <mxPoint x="-2010" y="3690" as="sourcePoint" />
            <mxPoint x="-1919" y="3725" as="targetPoint" />
          </mxGeometry>
        </mxCell>
        <mxCell id="XBgEdrSx74rCmCJo9hQQ-192" value="use" style="edgeLabel;html=1;align=center;verticalAlign=middle;resizable=0;points=[];" vertex="1" connectable="0" parent="XBgEdrSx74rCmCJo9hQQ-191">
          <mxGeometry x="-0.0444" y="2" relative="1" as="geometry">
            <mxPoint x="-6" as="offset" />
          </mxGeometry>
        </mxCell>
        <mxCell id="XBgEdrSx74rCmCJo9hQQ-196" value="" style="endArrow=open;html=1;rounded=0;entryX=0;entryY=0.25;entryDx=0;entryDy=0;exitX=1;exitY=0.5;exitDx=0;exitDy=0;dashed=1;endFill=0;" edge="1" parent="mxSxCT3K7TG5ama-A4u--1" source="XBgEdrSx74rCmCJo9hQQ-152" target="XBgEdrSx74rCmCJo9hQQ-149">
          <mxGeometry width="50" height="50" relative="1" as="geometry">
            <mxPoint x="-1630" y="3780" as="sourcePoint" />
            <mxPoint x="-1540" y="3810" as="targetPoint" />
          </mxGeometry>
        </mxCell>
        <mxCell id="XBgEdrSx74rCmCJo9hQQ-197" value="use" style="edgeLabel;html=1;align=center;verticalAlign=middle;resizable=0;points=[];" vertex="1" connectable="0" parent="XBgEdrSx74rCmCJo9hQQ-196">
          <mxGeometry x="-0.0444" y="2" relative="1" as="geometry">
            <mxPoint x="-6" as="offset" />
          </mxGeometry>
        </mxCell>
        <mxCell id="XBgEdrSx74rCmCJo9hQQ-198" value="" style="endArrow=none;html=1;rounded=0;entryX=0;entryY=0.5;entryDx=0;entryDy=0;entryPerimeter=0;exitX=1;exitY=0.5;exitDx=0;exitDy=0;" edge="1" parent="mxSxCT3K7TG5ama-A4u--1" source="XBgEdrSx74rCmCJo9hQQ-149" target="XBgEdrSx74rCmCJo9hQQ-150">
          <mxGeometry width="50" height="50" relative="1" as="geometry">
            <mxPoint x="-1230" y="3810" as="sourcePoint" />
            <mxPoint x="-1020" y="3810" as="targetPoint" />
          </mxGeometry>
        </mxCell>
        <mxCell id="XBgEdrSx74rCmCJo9hQQ-199" value="" style="endArrow=open;html=1;rounded=0;entryX=0.5;entryY=0;entryDx=0;entryDy=0;exitX=0.5;exitY=1;exitDx=0;exitDy=0;dashed=1;endFill=0;" edge="1" parent="mxSxCT3K7TG5ama-A4u--1" source="XBgEdrSx74rCmCJo9hQQ-149" target="XBgEdrSx74rCmCJo9hQQ-148">
          <mxGeometry width="50" height="50" relative="1" as="geometry">
            <mxPoint x="-1395.43" y="4010" as="sourcePoint" />
            <mxPoint x="-1395.43" y="4095" as="targetPoint" />
          </mxGeometry>
        </mxCell>
        <mxCell id="XBgEdrSx74rCmCJo9hQQ-200" value="use" style="edgeLabel;html=1;align=center;verticalAlign=middle;resizable=0;points=[];" vertex="1" connectable="0" parent="XBgEdrSx74rCmCJo9hQQ-199">
          <mxGeometry x="-0.0444" y="2" relative="1" as="geometry">
            <mxPoint x="-2" y="-6" as="offset" />
          </mxGeometry>
        </mxCell>
        <mxCell id="XBgEdrSx74rCmCJo9hQQ-201" value="&lt;font color=&quot;#000000&quot;&gt;Model&lt;/font&gt;" style="shape=umlFrame;whiteSpace=wrap;html=1;fontColor=#FF0000;" vertex="1" parent="mxSxCT3K7TG5ama-A4u--1">
          <mxGeometry x="-1930" y="3140" width="820" height="500" as="geometry" />
        </mxCell>
        <mxCell id="XBgEdrSx74rCmCJo9hQQ-202" value="&lt;font color=&quot;#000000&quot;&gt;Model&lt;/font&gt;" style="shape=umlFrame;whiteSpace=wrap;html=1;fontColor=#FF0000;" vertex="1" parent="mxSxCT3K7TG5ama-A4u--1">
          <mxGeometry x="-1930" y="3660" width="820" height="610" as="geometry" />
        </mxCell>
        <mxCell id="XBgEdrSx74rCmCJo9hQQ-203" value="" style="endArrow=none;html=1;rounded=0;entryX=0;entryY=0.5;entryDx=0;entryDy=0;entryPerimeter=0;exitX=1;exitY=0.5;exitDx=0;exitDy=0;" edge="1" parent="mxSxCT3K7TG5ama-A4u--1" source="XBgEdrSx74rCmCJo9hQQ-112" target="XBgEdrSx74rCmCJo9hQQ-117">
          <mxGeometry width="50" height="50" relative="1" as="geometry">
            <mxPoint x="-1430" y="2820" as="sourcePoint" />
            <mxPoint x="-1380" y="2770" as="targetPoint" />
          </mxGeometry>
        </mxCell>
        <mxCell id="XBgEdrSx74rCmCJo9hQQ-173" value="&lt;font color=&quot;#000000&quot;&gt;Model&lt;/font&gt;" style="shape=umlFrame;whiteSpace=wrap;html=1;fontColor=#FF0000;" vertex="1" parent="mxSxCT3K7TG5ama-A4u--1">
          <mxGeometry x="-1931.25" y="2680" width="820" height="440" as="geometry" />
        </mxCell>
        <mxCell id="XBgEdrSx74rCmCJo9hQQ-204" value="/Manage_Project" style="text;html=1;align=center;verticalAlign=middle;resizable=0;points=[];autosize=1;strokeColor=none;fillColor=none;" vertex="1" parent="mxSxCT3K7TG5ama-A4u--1">
          <mxGeometry x="-3220" y="3640" width="110" height="30" as="geometry" />
        </mxCell>
        <mxCell id="XBgEdrSx74rCmCJo9hQQ-205" value="/Manage_Community" style="text;html=1;align=center;verticalAlign=middle;resizable=0;points=[];autosize=1;strokeColor=none;fillColor=none;" vertex="1" parent="mxSxCT3K7TG5ama-A4u--1">
          <mxGeometry x="-3220" y="3770" width="140" height="30" as="geometry" />
        </mxCell>
        <mxCell id="XBgEdrSx74rCmCJo9hQQ-206" value="/Manage_Authentication" style="text;html=1;align=center;verticalAlign=middle;resizable=0;points=[];autosize=1;strokeColor=none;fillColor=none;" vertex="1" parent="mxSxCT3K7TG5ama-A4u--1">
          <mxGeometry x="-3220" y="3510" width="150" height="30" as="geometry" />
        </mxCell>
        <mxCell id="XBgEdrSx74rCmCJo9hQQ-207" value="/project_login" style="text;html=1;align=center;verticalAlign=middle;resizable=0;points=[];autosize=1;strokeColor=none;fillColor=none;" vertex="1" parent="mxSxCT3K7TG5ama-A4u--1">
          <mxGeometry x="-3220" y="3380" width="90" height="30" as="geometry" />
        </mxCell>
        <mxCell id="XBgEdrSx74rCmCJo9hQQ-208" value="project_main" style="text;html=1;align=center;verticalAlign=middle;resizable=0;points=[];autosize=1;strokeColor=none;fillColor=none;" vertex="1" parent="mxSxCT3K7TG5ama-A4u--1">
          <mxGeometry x="-3000" y="3590" width="90" height="30" as="geometry" />
        </mxCell>
      </root>
    </mxGraphModel>
  </diagram>
</mxfile>
